Courier Prime Italic.ufo
<glyph name="numbersign" format="1">
  <advance width="1228"/>
  <unicode hex="0023"/>
  <outline>
    <contour>
      <point x="1055" y="1209"/>
      <point x="1035" y="1199"/>
      <point x="1025" y="1176" type="curve" smooth="yes"/>
      <point x="540" y="45" type="line" smooth="yes"/>
      <point x="522" y="3"/>
      <point x="563" y="-22"/>
      <point x="606" y="-22" type="curve" smooth="yes"/>
      <point x="636" y="-22"/>
      <point x="656" y="-12"/>
      <point x="666" y="11" type="curve" smooth="yes"/>
      <point x="1151" y="1142" type="line" smooth="yes"/>
      <point x="1169" y="1184"/>
      <point x="1128" y="1209"/>
      <point x="1085" y="1209" type="curve" smooth="yes"/>
    </contour>
    <contour>
      <point x="137" y="476" type="line" smooth="yes"/>
      <point x="92" y="476"/>
      <point x="70" y="456"/>
      <point x="61" y="404" type="curve" smooth="yes"/>
      <point x="52" y="352"/>
      <point x="67" y="332"/>
      <point x="112" y="332" type="curve" smooth="yes"/>
      <point x="1024" y="332" type="line" smooth="yes"/>
      <point x="1069" y="332"/>
      <point x="1090" y="352"/>
      <point x="1099" y="404" type="curve" smooth="yes"/>
      <point x="1108" y="456"/>
      <point x="1094" y="476"/>
      <point x="1049" y="476" type="curve" smooth="yes"/>
    </contour>
    <contour>
      <point x="661" y="1209"/>
      <point x="641" y="1199"/>
      <point x="631" y="1176" type="curve" smooth="yes"/>
      <point x="146" y="45" type="line" smooth="yes"/>
      <point x="128" y="3"/>
      <point x="169" y="-22"/>
      <point x="212" y="-22" type="curve" smooth="yes"/>
      <point x="242" y="-22"/>
      <point x="262" y="-12"/>
      <point x="272" y="11" type="curve" smooth="yes"/>
      <point x="757" y="1142" type="line" smooth="yes"/>
      <point x="775" y="1184"/>
      <point x="734" y="1209"/>
      <point x="691" y="1209" type="curve" smooth="yes"/>
    </contour>
    <contour>
      <point x="276" y="865" type="line" smooth="yes"/>
      <point x="231" y="865"/>
      <point x="209" y="845"/>
      <point x="200" y="793" type="curve" smooth="yes"/>
      <point x="191" y="741"/>
      <point x="205" y="721"/>
      <point x="250" y="721" type="curve" smooth="yes"/>
      <point x="1162" y="721" type="line" smooth="yes"/>
      <point x="1207" y="721"/>
      <point x="1229" y="741"/>
      <point x="1238" y="793" type="curve" smooth="yes"/>
      <point x="1247" y="845"/>
      <point x="1233" y="865"/>
      <point x="1188" y="865" type="curve" smooth="yes"/>
    </contour>
  </outline>
</glyph>
<glyph name="percent" format="1">
  <advance width="1228"/>
  <unicode hex="0025"/>
  <outline>
    <contour>
      <point x="99" y="229" type="line" smooth="yes"/>
      <point x="60" y="198"/>
      <point x="57" y="167"/>
      <point x="83" y="134" type="curve" smooth="yes"/>
      <point x="108" y="101"/>
      <point x="139" y="98"/>
      <point x="177" y="129" type="curve" smooth="yes"/>
      <point x="1198" y="959" type="line" smooth="yes"/>
      <point x="1236" y="990"/>
      <point x="1239" y="1021"/>
      <point x="1213" y="1054" type="curve" smooth="yes"/>
      <point x="1187" y="1087"/>
      <point x="1158" y="1090"/>
      <point x="1119" y="1059" type="curve" smooth="yes"/>
    </contour>
    <contour>
      <point x="247" y="1209"/>
      <point x="122" y="1065"/>
      <point x="122" y="900" type="curve" smooth="yes"/>
      <point x="122" y="759"/>
      <point x="229" y="661"/>
      <point x="365" y="661" type="curve" smooth="yes"/>
      <point x="549" y="661"/>
      <point x="674" y="805"/>
      <point x="674" y="970" type="curve" smooth="yes"/>
      <point x="674" y="1111"/>
      <point x="567" y="1209"/>
      <point x="431" y="1209" type="curve" smooth="yes"/>
    </contour>
    <contour>
      <point x="496" y="1079"/>
      <point x="542" y="1029"/>
      <point x="542" y="961" type="curve" smooth="yes"/>
      <point x="542" y="874"/>
      <point x="473" y="791"/>
      <point x="377" y="791" type="curve" smooth="yes"/>
      <point x="300" y="791"/>
      <point x="254" y="841"/>
      <point x="254" y="909" type="curve" smooth="yes"/>
      <point x="254" y="996"/>
      <point x="323" y="1079"/>
      <point x="419" y="1079" type="curve" smooth="yes"/>
    </contour>
    <contour>
      <point x="747" y="526"/>
      <point x="622" y="382"/>
      <point x="622" y="217" type="curve" smooth="yes"/>
      <point x="622" y="76"/>
      <point x="729" y="-22"/>
      <point x="865" y="-22" type="curve" smooth="yes"/>
      <point x="1049" y="-22"/>
      <point x="1174" y="122"/>
      <point x="1174" y="287" type="curve" smooth="yes"/>
      <point x="1174" y="428"/>
      <point x="1067" y="526"/>
      <point x="931" y="526" type="curve" smooth="yes"/>
    </contour>
    <contour>
      <point x="996" y="396"/>
      <point x="1042" y="346"/>
      <point x="1042" y="278" type="curve" smooth="yes"/>
      <point x="1042" y="191"/>
      <point x="973" y="108"/>
      <point x="877" y="108" type="curve" smooth="yes"/>
      <point x="800" y="108"/>
      <point x="754" y="158"/>
      <point x="754" y="226" type="curve" smooth="yes"/>
      <point x="754" y="313"/>
      <point x="823" y="396"/>
      <point x="919" y="396" type="curve" smooth="yes"/>
    </contour>
  </outline>
</glyph>
<glyph name="parenleft" format="1">
  <advance width="1228"/>
  <unicode hex="0028"/>
  <outline>
    <contour>
      <point x="567" y="1193"/>
      <point x="304" y="788"/>
      <point x="304" y="362" type="curve" smooth="yes"/>
      <point x="304" y="27"/>
      <point x="471" y="-221"/>
      <point x="641" y="-337" type="curve" smooth="yes"/>
      <point x="666" y="-354"/>
      <point x="696" y="-339"/>
      <point x="718" y="-315" type="curve" smooth="yes"/>
      <point x="743" y="-288"/>
      <point x="756" y="-249"/>
      <point x="737" y="-235" type="curve" smooth="yes"/>
      <point x="588" y="-124"/>
      <point x="451" y="76"/>
      <point x="451" y="362" type="curve" smooth="yes"/>
      <point x="451" y="743"/>
      <point x="662" y="1067"/>
      <point x="1001" y="1243" type="curve" smooth="yes"/>
      <point x="1026" y="1256"/>
      <point x="1026" y="1299"/>
      <point x="1011" y="1334" type="curve" smooth="yes"/>
      <point x="998" y="1366"/>
      <point x="972" y="1390"/>
      <point x="940" y="1375" type="curve" smooth="yes"/>
    </contour>
  </outline>
</glyph>
<glyph name="parenright" format="1">
  <advance width="1228"/>
  <unicode hex="0029"/>
  <outline>
    <contour>
      <point x="604" y="1391"/>
      <point x="574" y="1376"/>
      <point x="552" y="1352" type="curve" smooth="yes"/>
      <point x="527" y="1325"/>
      <point x="514" y="1286"/>
      <point x="533" y="1272" type="curve" smooth="yes"/>
      <point x="682" y="1161"/>
      <point x="819" y="961"/>
      <point x="819" y="675" type="curve"/>
      <point x="819" y="294"/>
      <point x="608" y="-30"/>
      <point x="269" y="-206" type="curve" smooth="yes"/>
      <point x="244" y="-219"/>
      <point x="244" y="-262"/>
      <point x="259" y="-297" type="curve" smooth="yes"/>
      <point x="272" y="-329"/>
      <point x="298" y="-353"/>
      <point x="330" y="-338" type="curve" smooth="yes"/>
      <point x="703" y="-156"/>
      <point x="966" y="249"/>
      <point x="966" y="675" type="curve" smooth="yes"/>
      <point x="966" y="1010"/>
      <point x="799" y="1258"/>
      <point x="629" y="1374" type="curve" smooth="yes"/>
    </contour>
  </outline>
</glyph>
<glyph name="asterisk" format="1">
  <advance width="1228"/>
  <unicode hex="002A"/>
  <outline>
    <contour>
      <point x="692" y="1209"/>
      <point x="654" y="1174"/>
      <point x="652" y="1119" type="curve" smooth="yes"/>
      <point x="641" y="842" type="line"/>
      <point x="403" y="964" type="line" smooth="yes"/>
      <point x="357" y="987"/>
      <point x="317" y="974"/>
      <point x="289" y="913" type="curve" smooth="yes"/>
      <point x="262" y="853"/>
      <point x="278" y="815"/>
      <point x="330" y="804" type="curve" smooth="yes"/>
      <point x="593" y="750" type="line"/>
      <point x="360" y="547" type="line" smooth="yes"/>
      <point x="315" y="508"/>
      <point x="317" y="456"/>
      <point x="361" y="419" type="curve" smooth="yes"/>
      <point x="405" y="383"/>
      <point x="458" y="393"/>
      <point x="492" y="441" type="curve" smooth="yes"/>
      <point x="667" y="683" type="line"/>
      <point x="762" y="446" type="line" smooth="yes"/>
      <point x="781" y="399"/>
      <point x="820" y="376"/>
      <point x="878" y="411" type="curve" smooth="yes"/>
      <point x="935" y="445"/>
      <point x="938" y="486"/>
      <point x="908" y="527" type="curve" smooth="yes"/>
      <point x="754" y="739" type="line"/>
      <point x="1037" y="787" type="line" smooth="yes"/>
      <point x="1093" y="797"/>
      <point x="1122" y="838"/>
      <point x="1113" y="897" type="curve" smooth="yes"/>
      <point x="1105" y="956"/>
      <point x="1058" y="979"/>
      <point x="1004" y="955" type="curve" smooth="yes"/>
      <point x="741" y="837" type="line"/>
      <point x="827" y="1119" type="line" smooth="yes"/>
      <point x="843" y="1174"/>
      <point x="816" y="1209"/>
      <point x="754" y="1209" type="curve" smooth="yes"/>
    </contour>
  </outline>
</glyph>
<glyph name="slash" format="1">
  <advance width="1228"/>
  <unicode hex="002F"/>
  <outline>
    <contour>
      <point x="1072" y="1394"/>
      <point x="1045" y="1385"/>
      <point x="1032" y="1362" type="curve" smooth="yes"/>
      <point x="89" y="-276" type="line" smooth="yes"/>
      <point x="66" y="-315"/>
      <point x="98" y="-355"/>
      <point x="161" y="-355" type="curve" smooth="yes"/>
      <point x="199" y="-355"/>
      <point x="226" y="-346"/>
      <point x="239" y="-323" type="curve" smooth="yes"/>
      <point x="1182" y="1315" type="line" smooth="yes"/>
      <point x="1205" y="1354"/>
      <point x="1173" y="1394"/>
      <point x="1110" y="1394" type="curve" smooth="yes"/>
    </contour>
  </outline>
</glyph>
<glyph name="two" format="1">
  <advance width="1228"/>
  <unicode hex="0032"/>
  <outline>
    <contour>
      <point x="591" y="1209"/>
      <point x="476" y="1169"/>
      <point x="371" y="1103" type="curve" smooth="yes"/>
      <point x="353" y="1092"/>
      <point x="343" y="1075"/>
      <point x="338" y="1048" type="curve" smooth="yes"/>
      <point x="311" y="895" type="line" smooth="yes"/>
      <point x="303" y="849"/>
      <point x="319" y="830"/>
      <point x="375" y="830" type="curve" smooth="yes"/>
      <point x="431" y="830"/>
      <point x="453" y="849"/>
      <point x="461" y="895" type="curve" smooth="yes"/>
      <point x="480" y="1000" type="line"/>
      <point x="543" y="1035"/>
      <point x="619" y="1061"/>
      <point x="698" y="1061" type="curve" smooth="yes"/>
      <point x="828" y="1061"/>
      <point x="894" y="999"/>
      <point x="894" y="901" type="curve" smooth="yes"/>
      <point x="894" y="783"/>
      <point x="822" y="697"/>
      <point x="672" y="568" type="curve" smooth="yes"/>
      <point x="153" y="122" type="line" smooth="yes"/>
      <point x="141" y="111"/>
      <point x="133" y="94"/>
      <point x="128" y="68" type="curve" smooth="yes"/>
      <point x="120" y="18"/>
      <point x="135" y="0"/>
      <point x="180" y="0" type="curve" smooth="yes"/>
      <point x="894" y="0" type="line" smooth="yes"/>
      <point x="939" y="0"/>
      <point x="960" y="18"/>
      <point x="968" y="68" type="curve" smooth="yes"/>
      <point x="1006" y="282" type="line" smooth="yes"/>
      <point x="1014" y="328"/>
      <point x="999" y="347"/>
      <point x="943" y="347" type="curve" smooth="yes"/>
      <point x="887" y="347"/>
      <point x="864" y="328"/>
      <point x="856" y="282" type="curve" smooth="yes"/>
      <point x="830" y="136" type="line"/>
      <point x="384" y="136" type="line"/>
      <point x="781" y="477" type="line" smooth="yes"/>
      <point x="964" y="634"/>
      <point x="1053" y="744"/>
      <point x="1053" y="911" type="curve" smooth="yes"/>
      <point x="1053" y="1095"/>
      <point x="919" y="1209"/>
      <point x="713" y="1209" type="curve" smooth="yes"/>
    </contour>
  </outline>
</glyph>
<glyph name="three" format="1">
  <advance width="1228"/>
  <unicode hex="0033"/>
  <outline>
    <contour>
      <point x="600" y="1209"/>
      <point x="500" y="1182"/>
      <point x="399" y="1126" type="curve" smooth="yes"/>
      <point x="378" y="1114"/>
      <point x="367" y="1098"/>
      <point x="362" y="1069" type="curve" smooth="yes"/>
      <point x="342" y="955" type="line" smooth="yes"/>
      <point x="334" y="909"/>
      <point x="349" y="890"/>
      <point x="405" y="890" type="curve" smooth="yes"/>
      <point x="461" y="890"/>
      <point x="484" y="909"/>
      <point x="492" y="955" type="curve" smooth="yes"/>
      <point x="504" y="1022" type="line"/>
      <point x="562" y="1048"/>
      <point x="629" y="1061"/>
      <point x="708" y="1061" type="curve" smooth="yes"/>
      <point x="836" y="1061"/>
      <point x="904" y="1007"/>
      <point x="904" y="917" type="curve" smooth="yes"/>
      <point x="904" y="810"/>
      <point x="840" y="691"/>
      <point x="636" y="691" type="curve" smooth="yes"/>
      <point x="581" y="691" type="line" smooth="yes"/>
      <point x="536" y="691"/>
      <point x="515" y="673"/>
      <point x="506" y="623" type="curve" smooth="yes"/>
      <point x="498" y="573"/>
      <point x="512" y="555"/>
      <point x="557" y="555" type="curve" smooth="yes"/>
      <point x="630" y="555" type="line" smooth="yes"/>
      <point x="766" y="555"/>
      <point x="846" y="500"/>
      <point x="846" y="386" type="curve" smooth="yes"/>
      <point x="846" y="271"/>
      <point x="769" y="126"/>
      <point x="550" y="126" type="curve" smooth="yes"/>
      <point x="444" y="126"/>
      <point x="343" y="166"/>
      <point x="268" y="229" type="curve" smooth="yes"/>
      <point x="233" y="260"/>
      <point x="198" y="233"/>
      <point x="175" y="197" type="curve" smooth="yes"/>
      <point x="151" y="160"/>
      <point x="149" y="129"/>
      <point x="179" y="104" type="curve" smooth="yes"/>
      <point x="269" y="28"/>
      <point x="401" y="-22"/>
      <point x="534" y="-22" type="curve" smooth="yes"/>
      <point x="883" y="-22"/>
      <point x="1003" y="215"/>
      <point x="1003" y="383" type="curve" smooth="yes"/>
      <point x="1003" y="501"/>
      <point x="949" y="583"/>
      <point x="858" y="625" type="curve"/>
      <point x="994" y="686"/>
      <point x="1058" y="794"/>
      <point x="1058" y="927" type="curve" smooth="yes"/>
      <point x="1058" y="1094"/>
      <point x="929" y="1209"/>
      <point x="723" y="1209" type="curve" smooth="yes"/>
    </contour>
  </outline>
</glyph>
<glyph name="four" format="1">
  <advance width="1228"/>
  <unicode hex="0034"/>
  <outline>
    <contour>
      <point x="842" y="1209"/>
      <point x="808" y="1191"/>
      <point x="773" y="1151" type="curve" smooth="yes"/>
      <point x="170" y="478" type="line" smooth="yes"/>
      <point x="161" y="468"/>
      <point x="156" y="449"/>
      <point x="152" y="428" type="curve" smooth="yes"/>
      <point x="143" y="378"/>
      <point x="158" y="360"/>
      <point x="203" y="360" type="curve" smooth="yes"/>
      <point x="681" y="360" type="line"/>
      <point x="641" y="136" type="line"/>
      <point x="493" y="136" type="line" smooth="yes"/>
      <point x="448" y="136"/>
      <point x="427" y="118"/>
      <point x="418" y="68" type="curve" smooth="yes"/>
      <point x="410" y="18"/>
      <point x="425" y="0"/>
      <point x="470" y="0" type="curve" smooth="yes"/>
      <point x="900" y="0" type="line" smooth="yes"/>
      <point x="945" y="0"/>
      <point x="966" y="18"/>
      <point x="974" y="68" type="curve" smooth="yes"/>
      <point x="983" y="118"/>
      <point x="968" y="136"/>
      <point x="923" y="136" type="curve" smooth="yes"/>
      <point x="791" y="136" type="line"/>
      <point x="831" y="360" type="line"/>
      <point x="993" y="360" type="line" smooth="yes"/>
      <point x="1038" y="360"/>
      <point x="1059" y="378"/>
      <point x="1068" y="428" type="curve" smooth="yes"/>
      <point x="1077" y="478"/>
      <point x="1062" y="496"/>
      <point x="1017" y="496" type="curve" smooth="yes"/>
      <point x="855" y="496" type="line"/>
      <point x="967" y="1131" type="line" smooth="yes"/>
      <point x="975" y="1178"/>
      <point x="956" y="1209"/>
      <point x="894" y="1209" type="curve" smooth="yes"/>
    </contour>
    <contour>
      <point x="705" y="496" type="line"/>
      <point x="368" y="496" type="line"/>
      <point x="799" y="986" type="line"/>
    </contour>
  </outline>
</glyph>
<glyph name="five" format="1">
  <advance width="1228"/>
  <unicode hex="0035"/>
  <outline>
    <contour>
      <point x="490" y="1187" type="line" smooth="yes"/>
      <point x="434" y="1187"/>
      <point x="413" y="1168"/>
      <point x="403" y="1122" type="curve" smooth="yes"/>
      <point x="290" y="599" type="line" smooth="yes"/>
      <point x="284" y="572"/>
      <point x="318" y="557"/>
      <point x="363" y="557" type="curve" smooth="yes"/>
      <point x="386" y="557"/>
      <point x="400" y="560"/>
      <point x="418" y="571" type="curve" smooth="yes"/>
      <point x="485" y="612"/>
      <point x="559" y="638"/>
      <point x="650" y="638" type="curve" smooth="yes"/>
      <point x="781" y="638"/>
      <point x="855" y="560"/>
      <point x="855" y="443" type="curve" smooth="yes"/>
      <point x="855" y="299"/>
      <point x="760" y="126"/>
      <point x="540" y="126" type="curve" smooth="yes"/>
      <point x="437" y="126"/>
      <point x="339" y="166"/>
      <point x="265" y="226" type="curve" smooth="yes"/>
      <point x="239" y="248"/>
      <point x="210" y="243"/>
      <point x="178" y="196" type="curve" smooth="yes"/>
      <point x="146" y="149"/>
      <point x="152" y="119"/>
      <point x="181" y="97" type="curve" smooth="yes"/>
      <point x="272" y="26"/>
      <point x="399" y="-22"/>
      <point x="529" y="-22" type="curve" smooth="yes"/>
      <point x="867" y="-22"/>
      <point x="1013" y="243"/>
      <point x="1013" y="447" type="curve" smooth="yes"/>
      <point x="1013" y="645"/>
      <point x="892" y="786"/>
      <point x="679" y="786" type="curve" smooth="yes"/>
      <point x="603" y="786"/>
      <point x="534" y="771"/>
      <point x="465" y="735" type="curve"/>
      <point x="534" y="1051" type="line"/>
      <point x="1000" y="1051" type="line" smooth="yes"/>
      <point x="1045" y="1051"/>
      <point x="1066" y="1069"/>
      <point x="1075" y="1119" type="curve" smooth="yes"/>
      <point x="1084" y="1169"/>
      <point x="1069" y="1187"/>
      <point x="1024" y="1187" type="curve" smooth="yes"/>
    </contour>
  </outline>
</glyph>
<glyph name="eight" format="1">
  <advance width="1228"/>
  <unicode hex="0038"/>
  <outline>
    <contour>
      <point x="473" y="1209"/>
      <point x="327" y="999"/>
      <point x="327" y="846" type="curve" smooth="yes"/>
      <point x="327" y="753"/>
      <point x="380" y="679"/>
      <point x="452" y="635" type="curve"/>
      <point x="307" y="575"/>
      <point x="192" y="458"/>
      <point x="192" y="290" type="curve" smooth="yes"/>
      <point x="192" y="111"/>
      <point x="339" y="-22"/>
      <point x="550" y="-22" type="curve" smooth="yes"/>
      <point x="855" y="-22"/>
      <point x="1014" y="201"/>
      <point x="1014" y="384" type="curve" smooth="yes"/>
      <point x="1014" y="494"/>
      <point x="950" y="579"/>
      <point x="857" y="625" type="curve"/>
      <point x="975" y="683"/>
      <point x="1070" y="780"/>
      <point x="1070" y="923" type="curve" smooth="yes"/>
      <point x="1070" y="1083"/>
      <point x="938" y="1209"/>
      <point x="747" y="1209" type="curve" smooth="yes"/>
    </contour>
    <contour>
      <point x="773" y="554"/>
      <point x="855" y="484"/>
      <point x="855" y="379" type="curve" smooth="yes"/>
      <point x="855" y="253"/>
      <point x="747" y="126"/>
      <point x="566" y="126" type="curve" smooth="yes"/>
      <point x="435" y="126"/>
      <point x="352" y="197"/>
      <point x="352" y="301" type="curve" smooth="yes"/>
      <point x="352" y="424"/>
      <point x="457" y="554"/>
      <point x="641" y="554" type="curve" smooth="yes"/>
    </contour>
    <contour>
      <point x="841" y="1061"/>
      <point x="916" y="1004"/>
      <point x="916" y="910" type="curve" smooth="yes"/>
      <point x="916" y="791"/>
      <point x="803" y="693"/>
      <point x="666" y="693" type="curve" smooth="yes"/>
      <point x="555" y="693"/>
      <point x="480" y="758"/>
      <point x="480" y="847" type="curve" smooth="yes"/>
      <point x="480" y="950"/>
      <point x="571" y="1061"/>
      <point x="731" y="1061" type="curve" smooth="yes"/>
    </contour>
  </outline>
</glyph>
<glyph name="nine" format="1">
  <advance width="1228"/>
  <unicode hex="0039"/>
  <outline>
    <contour>
      <point x="424" y="1209"/>
      <point x="259" y="985"/>
      <point x="259" y="774" type="curve" smooth="yes"/>
      <point x="259" y="583"/>
      <point x="395" y="456"/>
      <point x="589" y="456" type="curve" smooth="yes"/>
      <point x="705" y="456"/>
      <point x="813" y="502"/>
      <point x="899" y="587" type="curve"/>
      <point x="816" y="328"/>
      <point x="605" y="144"/>
      <point x="234" y="125" type="curve"/>
      <point x="207" y="124"/>
      <point x="186" y="104"/>
      <point x="186" y="45" type="curve" smooth="yes"/>
      <point x="186" y="-10"/>
      <point x="209" y="-23"/>
      <point x="239" y="-22" type="curve"/>
      <point x="749" y="2"/>
      <point x="1083" y="335"/>
      <point x="1083" y="835" type="curve" smooth="yes"/>
      <point x="1083" y="1032"/>
      <point x="975" y="1209"/>
      <point x="720" y="1209" type="curve" smooth="yes"/>
    </contour>
    <contour>
      <point x="850" y="1061"/>
      <point x="929" y="983"/>
      <point x="929" y="868" type="curve" smooth="yes"/>
      <point x="929" y="701"/>
      <point x="778" y="604"/>
      <point x="617" y="604" type="curve" smooth="yes"/>
      <point x="487" y="604"/>
      <point x="417" y="670"/>
      <point x="417" y="784" type="curve" smooth="yes"/>
      <point x="417" y="913"/>
      <point x="509" y="1061"/>
      <point x="714" y="1061" type="curve" smooth="yes"/>
    </contour>
  </outline>
</glyph>
<glyph name="question" format="1">
  <advance width="1228"/>
  <unicode hex="003F"/>
  <outline>
    <contour>
      <point x="643" y="1269"/>
      <point x="529" y="1241"/>
      <point x="418" y="1183" type="curve" smooth="yes"/>
      <point x="398" y="1172"/>
      <point x="388" y="1155"/>
      <point x="383" y="1127" type="curve" smooth="yes"/>
      <point x="359" y="995" type="line" smooth="yes"/>
      <point x="351" y="949"/>
      <point x="367" y="930"/>
      <point x="423" y="930" type="curve" smooth="yes"/>
      <point x="479" y="930"/>
      <point x="501" y="949"/>
      <point x="509" y="995" type="curve" smooth="yes"/>
      <point x="524" y="1079" type="line"/>
      <point x="591" y="1106"/>
      <point x="666" y="1121"/>
      <point x="747" y="1121" type="curve" smooth="yes"/>
      <point x="857" y="1121"/>
      <point x="913" y="1069"/>
      <point x="913" y="990" type="curve" smooth="yes"/>
      <point x="913" y="867"/>
      <point x="828" y="809"/>
      <point x="655" y="744" type="curve" smooth="yes"/>
      <point x="581" y="716" type="line" smooth="yes"/>
      <point x="557" y="707"/>
      <point x="545" y="691"/>
      <point x="542" y="665" type="curve" smooth="yes"/>
      <point x="522" y="467" type="line" smooth="yes"/>
      <point x="519" y="436"/>
      <point x="537" y="419"/>
      <point x="579" y="419" type="curve" smooth="yes"/>
      <point x="621" y="419"/>
      <point x="646" y="436"/>
      <point x="654" y="467" type="curve" smooth="yes"/>
      <point x="690" y="606" type="line"/>
      <point x="933" y="696"/>
      <point x="1072" y="803"/>
      <point x="1072" y="997" type="curve" smooth="yes"/>
      <point x="1072" y="1160"/>
      <point x="961" y="1269"/>
      <point x="762" y="1269" type="curve" smooth="yes"/>
    </contour>
    <contour>
      <point x="468" y="230"/>
      <point x="436" y="212"/>
      <point x="428" y="167" type="curve" smooth="yes"/>
      <point x="408" y="53" type="line" smooth="yes"/>
      <point x="400" y="8"/>
      <point x="437" y="-10"/>
      <point x="518" y="-10" type="curve" smooth="yes"/>
      <point x="599" y="-10"/>
      <point x="630" y="8"/>
      <point x="638" y="53" type="curve" smooth="yes"/>
      <point x="658" y="167" type="line" smooth="yes"/>
      <point x="666" y="212"/>
      <point x="630" y="230"/>
      <point x="549" y="230" type="curve" smooth="yes"/>
    </contour>
  </outline>
</glyph>
<glyph name="A" format="1">
  <advance width="1228"/>
  <unicode hex="0041"/>
  <outline>
    <contour>
      <point x="412" y="1187" type="line" smooth="yes"/>
      <point x="367" y="1187"/>
      <point x="346" y="1169"/>
      <point x="337" y="1119" type="curve" smooth="yes"/>
      <point x="328" y="1069"/>
      <point x="343" y="1051"/>
      <point x="388" y="1051" type="curve" smooth="yes"/>
      <point x="572" y="1051" type="line"/>
      <point x="79" y="136" type="line"/>
      <point x="26" y="136" type="line" smooth="yes"/>
      <point x="-19" y="136"/>
      <point x="-40" y="118"/>
      <point x="-49" y="68" type="curve" smooth="yes"/>
      <point x="-57" y="18"/>
      <point x="-42" y="0"/>
      <point x="3" y="0" type="curve" smooth="yes"/>
      <point x="337" y="0" type="line" smooth="yes"/>
      <point x="382" y="0"/>
      <point x="403" y="18"/>
      <point x="411" y="68" type="curve" smooth="yes"/>
      <point x="420" y="118"/>
      <point x="405" y="136"/>
      <point x="360" y="136" type="curve" smooth="yes"/>
      <point x="244" y="136" type="line"/>
      <point x="369" y="374" type="line"/>
      <point x="854" y="374" type="line"/>
      <point x="894" y="136" type="line"/>
      <point x="754" y="136" type="line" smooth="yes"/>
      <point x="709" y="136"/>
      <point x="688" y="118"/>
      <point x="679" y="68" type="curve" smooth="yes"/>
      <point x="671" y="18"/>
      <point x="686" y="0"/>
      <point x="731" y="0" type="curve" smooth="yes"/>
      <point x="1085" y="0" type="line" smooth="yes"/>
      <point x="1130" y="0"/>
      <point x="1151" y="18"/>
      <point x="1159" y="68" type="curve" smooth="yes"/>
      <point x="1168" y="118"/>
      <point x="1153" y="136"/>
      <point x="1108" y="136" type="curve" smooth="yes"/>
      <point x="1044" y="136" type="line"/>
      <point x="865" y="1122" type="line" smooth="yes"/>
      <point x="857" y="1168"/>
      <point x="829" y="1187"/>
      <point x="776" y="1187" type="curve" smooth="yes"/>
    </contour>
    <contour>
      <point x="832" y="510" type="line"/>
      <point x="440" y="510" type="line"/>
      <point x="723" y="1051" type="line"/>
      <point x="742" y="1051" type="line"/>
    </contour>
  </outline>
</glyph>
<glyph name="B" format="1">
  <advance width="1228"/>
  <unicode hex="0042"/>
  <outline>
    <contour>
      <point x="282" y="1187" type="line" smooth="yes"/>
      <point x="237" y="1187"/>
      <point x="216" y="1169"/>
      <point x="207" y="1119" type="curve" smooth="yes"/>
      <point x="198" y="1069"/>
      <point x="213" y="1051"/>
      <point x="258" y="1051" type="curve" smooth="yes"/>
      <point x="380" y="1051" type="line"/>
      <point x="218" y="136" type="line"/>
      <point x="96" y="136" type="line" smooth="yes"/>
      <point x="51" y="136"/>
      <point x="30" y="118"/>
      <point x="21" y="68" type="curve" smooth="yes"/>
      <point x="13" y="18"/>
      <point x="28" y="0"/>
      <point x="73" y="0" type="curve" smooth="yes"/>
      <point x="650" y="0" type="line" smooth="yes"/>
      <point x="932" y="0"/>
      <point x="1086" y="168"/>
      <point x="1086" y="380" type="curve" smooth="yes"/>
      <point x="1086" y="505"/>
      <point x="1020" y="590"/>
      <point x="912" y="628" type="curve"/>
      <point x="1019" y="685"/>
      <point x="1094" y="778"/>
      <point x="1094" y="908" type="curve" smooth="yes"/>
      <point x="1094" y="1076"/>
      <point x="986" y="1187"/>
      <point x="773" y="1187" type="curve" smooth="yes"/>
    </contour>
    <contour>
      <point x="857" y="545"/>
      <point x="929" y="492"/>
      <point x="929" y="378" type="curve" smooth="yes"/>
      <point x="929" y="230"/>
      <point x="821" y="136"/>
      <point x="633" y="136" type="curve" smooth="yes"/>
      <point x="368" y="136" type="line"/>
      <point x="441" y="545" type="line"/>
      <point x="711" y="545" type="line" smooth="yes"/>
    </contour>
    <contour>
      <point x="875" y="1051"/>
      <point x="941" y="1001"/>
      <point x="941" y="897" type="curve" smooth="yes"/>
      <point x="941" y="772"/>
      <point x="847" y="681"/>
      <point x="672" y="681" type="curve" smooth="yes"/>
      <point x="465" y="681" type="line"/>
      <point x="530" y="1051" type="line"/>
      <point x="747" y="1051" type="line" smooth="yes"/>
    </contour>
  </outline>
</glyph>
<glyph name="D" format="1">
  <advance width="1228"/>
  <unicode hex="0044"/>
  <outline>
    <contour>
      <point x="282" y="1187" type="line" smooth="yes"/>
      <point x="237" y="1187"/>
      <point x="216" y="1169"/>
      <point x="207" y="1119" type="curve" smooth="yes"/>
      <point x="198" y="1069"/>
      <point x="213" y="1051"/>
      <point x="258" y="1051" type="curve" smooth="yes"/>
      <point x="370" y="1051" type="line"/>
      <point x="208" y="136" type="line"/>
      <point x="96" y="136" type="line" smooth="yes"/>
      <point x="51" y="136"/>
      <point x="30" y="118"/>
      <point x="21" y="68" type="curve" smooth="yes"/>
      <point x="13" y="18"/>
      <point x="28" y="0"/>
      <point x="73" y="0" type="curve" smooth="yes"/>
      <point x="559" y="0" type="line" smooth="yes"/>
      <point x="1026" y="0"/>
      <point x="1185" y="447"/>
      <point x="1185" y="724" type="curve" smooth="yes"/>
      <point x="1185" y="1011"/>
      <point x="1011" y="1187"/>
      <point x="738" y="1187" type="curve" smooth="yes"/>
    </contour>
    <contour>
      <point x="907" y="1051"/>
      <point x="1028" y="936"/>
      <point x="1028" y="719" type="curve" smooth="yes"/>
      <point x="1028" y="487"/>
      <point x="904" y="136"/>
      <point x="544" y="136" type="curve" smooth="yes"/>
      <point x="358" y="136" type="line"/>
      <point x="520" y="1051" type="line"/>
      <point x="706" y="1051" type="line" smooth="yes"/>
    </contour>
  </outline>
</glyph>
<glyph name="J" format="1">
  <advance width="1228"/>
  <unicode hex="004A"/>
  <outline>
    <contour>
      <point x="542" y="1187" type="line" smooth="yes"/>
      <point x="497" y="1187"/>
      <point x="476" y="1169"/>
      <point x="467" y="1119" type="curve" smooth="yes"/>
      <point x="458" y="1069"/>
      <point x="473" y="1051"/>
      <point x="518" y="1051" type="curve" smooth="yes"/>
      <point x="859" y="1051" type="line"/>
      <point x="738" y="363" type="line" smooth="yes"/>
      <point x="710" y="205"/>
      <point x="624" y="126"/>
      <point x="447" y="126" type="curve" smooth="yes"/>
      <point x="350" y="126"/>
      <point x="276" y="152"/>
      <point x="230" y="201" type="curve"/>
      <point x="276" y="465" type="line" smooth="yes"/>
      <point x="285" y="511"/>
      <point x="269" y="530"/>
      <point x="213" y="530" type="curve" smooth="yes"/>
      <point x="157" y="530"/>
      <point x="135" y="511"/>
      <point x="126" y="465" type="curve" smooth="yes"/>
      <point x="77" y="186" type="line" smooth="yes"/>
      <point x="73" y="163"/>
      <point x="76" y="147"/>
      <point x="84" y="135" type="curve" smooth="yes"/>
      <point x="150" y="46"/>
      <point x="277" y="-22"/>
      <point x="435" y="-22" type="curve" smooth="yes"/>
      <point x="695" y="-22"/>
      <point x="841" y="98"/>
      <point x="882" y="333" type="curve" smooth="yes"/>
      <point x="1009" y="1051" type="line"/>
      <point x="1210" y="1051" type="line" smooth="yes"/>
      <point x="1255" y="1051"/>
      <point x="1276" y="1069"/>
      <point x="1285" y="1119" type="curve" smooth="yes"/>
      <point x="1294" y="1169"/>
      <point x="1279" y="1187"/>
      <point x="1234" y="1187" type="curve" smooth="yes"/>
    </contour>
  </outline>
</glyph>
<glyph name="N" format="1">
  <advance width="1228"/>
  <unicode hex="004E"/>
  <outline>
    <contour>
      <point x="910" y="1187" type="line" smooth="yes"/>
      <point x="865" y="1187"/>
      <point x="844" y="1169"/>
      <point x="835" y="1119" type="curve" smooth="yes"/>
      <point x="826" y="1069"/>
      <point x="841" y="1051"/>
      <point x="886" y="1051" type="curve" smooth="yes"/>
      <point x="1007" y="1051" type="line"/>
      <point x="874" y="298" type="line"/>
      <point x="870" y="298" type="line"/>
      <point x="548" y="1159" type="line" smooth="yes"/>
      <point x="541" y="1178"/>
      <point x="525" y="1187"/>
      <point x="496" y="1187" type="curve" smooth="yes"/>
      <point x="272" y="1187" type="line" smooth="yes"/>
      <point x="227" y="1187"/>
      <point x="206" y="1169"/>
      <point x="197" y="1119" type="curve" smooth="yes"/>
      <point x="188" y="1069"/>
      <point x="203" y="1051"/>
      <point x="248" y="1051" type="curve" smooth="yes"/>
      <point x="325" y="1051" type="line"/>
      <point x="163" y="136" type="line"/>
      <point x="96" y="136" type="line" smooth="yes"/>
      <point x="51" y="136"/>
      <point x="30" y="118"/>
      <point x="21" y="68" type="curve" smooth="yes"/>
      <point x="13" y="18"/>
      <point x="28" y="0"/>
      <point x="73" y="0" type="curve" smooth="yes"/>
      <point x="427" y="0" type="line" smooth="yes"/>
      <point x="472" y="0"/>
      <point x="493" y="18"/>
      <point x="501" y="68" type="curve" smooth="yes"/>
      <point x="510" y="118"/>
      <point x="495" y="136"/>
      <point x="450" y="136" type="curve" smooth="yes"/>
      <point x="309" y="136" type="line"/>
      <point x="457" y="973" type="line"/>
      <point x="461" y="973" type="line"/>
      <point x="814" y="33" type="line" smooth="yes"/>
      <point x="827" y="-2"/>
      <point x="851" y="-22"/>
      <point x="889" y="-22" type="curve" smooth="yes"/>
      <point x="941" y="-22"/>
      <point x="968" y="2"/>
      <point x="974" y="37" type="curve" smooth="yes"/>
      <point x="1153" y="1051" type="line"/>
      <point x="1210" y="1051" type="line" smooth="yes"/>
      <point x="1255" y="1051"/>
      <point x="1276" y="1069"/>
      <point x="1285" y="1119" type="curve" smooth="yes"/>
      <point x="1294" y="1169"/>
      <point x="1279" y="1187"/>
      <point x="1234" y="1187" type="curve" smooth="yes"/>
    </contour>
  </outline>
</glyph>
<glyph name="P" format="1">
  <advance width="1228"/>
  <unicode hex="0050"/>
  <outline>
    <contour>
      <point x="282" y="1187" type="line" smooth="yes"/>
      <point x="237" y="1187"/>
      <point x="216" y="1169"/>
      <point x="207" y="1119" type="curve" smooth="yes"/>
      <point x="198" y="1069"/>
      <point x="213" y="1051"/>
      <point x="258" y="1051" type="curve" smooth="yes"/>
      <point x="420" y="1051" type="line"/>
      <point x="258" y="136" type="line"/>
      <point x="96" y="136" type="line" smooth="yes"/>
      <point x="51" y="136"/>
      <point x="30" y="118"/>
      <point x="21" y="68" type="curve" smooth="yes"/>
      <point x="13" y="18"/>
      <point x="28" y="0"/>
      <point x="73" y="0" type="curve" smooth="yes"/>
      <point x="625" y="0" type="line" smooth="yes"/>
      <point x="670" y="0"/>
      <point x="691" y="18"/>
      <point x="699" y="68" type="curve" smooth="yes"/>
      <point x="708" y="118"/>
      <point x="693" y="136"/>
      <point x="648" y="136" type="curve" smooth="yes"/>
      <point x="408" y="136" type="line"/>
      <point x="461" y="433" type="line"/>
      <point x="706" y="433" type="line" smooth="yes"/>
      <point x="884" y="433"/>
      <point x="1007" y="494"/>
      <point x="1084" y="582" type="curve" smooth="yes"/>
      <point x="1157" y="666"/>
      <point x="1189" y="773"/>
      <point x="1189" y="875" type="curve" smooth="yes"/>
      <point x="1189" y="1060"/>
      <point x="1057" y="1187"/>
      <point x="819" y="1187" type="curve" smooth="yes"/>
    </contour>
    <contour>
      <point x="948" y="1051"/>
      <point x="1031" y="980"/>
      <point x="1031" y="861" type="curve" smooth="yes"/>
      <point x="1031" y="793"/>
      <point x="1010" y="724"/>
      <point x="963" y="670" type="curve" smooth="yes"/>
      <point x="910" y="610"/>
      <point x="825" y="569"/>
      <point x="699" y="569" type="curve" smooth="yes"/>
      <point x="485" y="569" type="line"/>
      <point x="570" y="1051" type="line"/>
      <point x="784" y="1051" type="line" smooth="yes"/>
    </contour>
  </outline>
</glyph>
<glyph name="S" format="1">
  <advance width="1228"/>
  <unicode hex="0053"/>
  <outline>
    <contour>
      <point x="1030" y="1209"/>
      <point x="1007" y="1190"/>
      <point x="999" y="1144" type="curve" smooth="yes"/>
      <point x="987" y="1078" type="line"/>
      <point x="925" y="1153"/>
      <point x="817" y="1209"/>
      <point x="694" y="1209" type="curve" smooth="yes"/>
      <point x="375" y="1209"/>
      <point x="248" y="992"/>
      <point x="248" y="821" type="curve" smooth="yes"/>
      <point x="248" y="710"/>
      <point x="311" y="650"/>
      <point x="397" y="611" type="curve" smooth="yes"/>
      <point x="523" y="555"/>
      <point x="699" y="545"/>
      <point x="805" y="492" type="curve" smooth="yes"/>
      <point x="860" y="464"/>
      <point x="897" y="425"/>
      <point x="897" y="361" type="curve" smooth="yes"/>
      <point x="897" y="238"/>
      <point x="796" y="126"/>
      <point x="594" y="126" type="curve" smooth="yes"/>
      <point x="419" y="126"/>
      <point x="312" y="212"/>
      <point x="285" y="366" type="curve" smooth="yes"/>
      <point x="280" y="394"/>
      <point x="263" y="408"/>
      <point x="234" y="408" type="curve" smooth="yes"/>
      <point x="178" y="408"/>
      <point x="156" y="389"/>
      <point x="148" y="343" type="curve" smooth="yes"/>
      <point x="95" y="43" type="line" smooth="yes"/>
      <point x="87" y="-3"/>
      <point x="103" y="-22"/>
      <point x="159" y="-22" type="curve" smooth="yes"/>
      <point x="215" y="-22"/>
      <point x="237" y="-3"/>
      <point x="245" y="43" type="curve" smooth="yes"/>
      <point x="260" y="126" type="line"/>
      <point x="327" y="32"/>
      <point x="439" y="-22"/>
      <point x="575" y="-22" type="curve" smooth="yes"/>
      <point x="938" y="-22"/>
      <point x="1057" y="207"/>
      <point x="1057" y="392" type="curve" smooth="yes"/>
      <point x="1057" y="509"/>
      <point x="1000" y="576"/>
      <point x="919" y="620" type="curve" smooth="yes"/>
      <point x="795" y="687"/>
      <point x="617" y="698"/>
      <point x="507" y="740" type="curve" smooth="yes"/>
      <point x="448" y="763"/>
      <point x="408" y="794"/>
      <point x="408" y="849" type="curve" smooth="yes"/>
      <point x="408" y="944"/>
      <point x="489" y="1061"/>
      <point x="675" y="1061" type="curve" smooth="yes"/>
      <point x="821" y="1061"/>
      <point x="931" y="998"/>
      <point x="975" y="875" type="curve" smooth="yes"/>
      <point x="982" y="857"/>
      <point x="998" y="849"/>
      <point x="1022" y="849" type="curve" smooth="yes"/>
      <point x="1078" y="849"/>
      <point x="1101" y="868"/>
      <point x="1109" y="914" type="curve" smooth="yes"/>
      <point x="1149" y="1144" type="line" smooth="yes"/>
      <point x="1157" y="1190"/>
      <point x="1142" y="1209"/>
      <point x="1086" y="1209" type="curve" smooth="yes"/>
    </contour>
  </outline>
</glyph>
<glyph name="T" format="1">
  <advance width="1228"/>
  <unicode hex="0054"/>
  <outline>
    <contour>
      <point x="324" y="1187" type="line" smooth="yes"/>
      <point x="279" y="1187"/>
      <point x="258" y="1169"/>
      <point x="249" y="1119" type="curve" smooth="yes"/>
      <point x="182" y="742" type="line" smooth="yes"/>
      <point x="174" y="696"/>
      <point x="190" y="677"/>
      <point x="246" y="677" type="curve" smooth="yes"/>
      <point x="302" y="677"/>
      <point x="324" y="696"/>
      <point x="332" y="742" type="curve" smooth="yes"/>
      <point x="387" y="1051" type="line"/>
      <point x="654" y="1051" type="line"/>
      <point x="492" y="136" type="line"/>
      <point x="266" y="136" type="line" smooth="yes"/>
      <point x="221" y="136"/>
      <point x="200" y="118"/>
      <point x="191" y="68" type="curve" smooth="yes"/>
      <point x="183" y="18"/>
      <point x="198" y="0"/>
      <point x="243" y="0" type="curve" smooth="yes"/>
      <point x="865" y="0" type="line" smooth="yes"/>
      <point x="910" y="0"/>
      <point x="931" y="18"/>
      <point x="939" y="68" type="curve" smooth="yes"/>
      <point x="948" y="118"/>
      <point x="933" y="136"/>
      <point x="888" y="136" type="curve" smooth="yes"/>
      <point x="642" y="136" type="line"/>
      <point x="804" y="1051" type="line"/>
      <point x="1071" y="1051" type="line"/>
      <point x="1016" y="742" type="line" smooth="yes"/>
      <point x="1008" y="696"/>
      <point x="1024" y="677"/>
      <point x="1080" y="677" type="curve" smooth="yes"/>
      <point x="1136" y="677"/>
      <point x="1158" y="696"/>
      <point x="1166" y="742" type="curve" smooth="yes"/>
      <point x="1233" y="1119" type="line" smooth="yes"/>
      <point x="1242" y="1169"/>
      <point x="1227" y="1187"/>
      <point x="1182" y="1187" type="curve" smooth="yes"/>
    </contour>
  </outline>
</glyph>
<glyph name="U" format="1">
  <advance width="1228"/>
  <unicode hex="0055"/>
  <outline>
    <contour>
      <point x="910" y="1187" type="line" smooth="yes"/>
      <point x="865" y="1187"/>
      <point x="844" y="1169"/>
      <point x="835" y="1119" type="curve" smooth="yes"/>
      <point x="826" y="1069"/>
      <point x="841" y="1051"/>
      <point x="886" y="1051" type="curve" smooth="yes"/>
      <point x="998" y="1051" type="line"/>
      <point x="885" y="413" type="line" smooth="yes"/>
      <point x="849" y="205"/>
      <point x="748" y="126"/>
      <point x="566" y="126" type="curve" smooth="yes"/>
      <point x="414" y="126"/>
      <point x="338" y="181"/>
      <point x="338" y="321" type="curve" smooth="yes"/>
      <point x="338" y="348"/>
      <point x="341" y="379"/>
      <point x="347" y="413" type="curve" smooth="yes"/>
      <point x="460" y="1051" type="line"/>
      <point x="572" y="1051" type="line" smooth="yes"/>
      <point x="617" y="1051"/>
      <point x="638" y="1069"/>
      <point x="647" y="1119" type="curve" smooth="yes"/>
      <point x="656" y="1169"/>
      <point x="641" y="1187"/>
      <point x="596" y="1187" type="curve" smooth="yes"/>
      <point x="272" y="1187" type="line" smooth="yes"/>
      <point x="227" y="1187"/>
      <point x="206" y="1169"/>
      <point x="197" y="1119" type="curve" smooth="yes"/>
      <point x="188" y="1069"/>
      <point x="203" y="1051"/>
      <point x="248" y="1051" type="curve" smooth="yes"/>
      <point x="310" y="1051" type="line"/>
      <point x="196" y="403" type="line" smooth="yes"/>
      <point x="190" y="366"/>
      <point x="186" y="331"/>
      <point x="186" y="299" type="curve" smooth="yes"/>
      <point x="186" y="84"/>
      <point x="329" y="-22"/>
      <point x="555" y="-22" type="curve" smooth="yes"/>
      <point x="815" y="-22"/>
      <point x="980" y="98"/>
      <point x="1030" y="383" type="curve" smooth="yes"/>
      <point x="1148" y="1051" type="line"/>
      <point x="1210" y="1051" type="line" smooth="yes"/>
      <point x="1255" y="1051"/>
      <point x="1276" y="1069"/>
      <point x="1285" y="1119" type="curve" smooth="yes"/>
      <point x="1294" y="1169"/>
      <point x="1279" y="1187"/>
      <point x="1234" y="1187" type="curve" smooth="yes"/>
    </contour>
  </outline>
</glyph>
<glyph name="V" format="1">
  <advance width="1228"/>
  <unicode hex="0056"/>
  <outline>
    <contour>
      <point x="960" y="1187" type="line" smooth="yes"/>
      <point x="915" y="1187"/>
      <point x="894" y="1169"/>
      <point x="885" y="1119" type="curve" smooth="yes"/>
      <point x="876" y="1069"/>
      <point x="891" y="1051"/>
      <point x="936" y="1051" type="curve" smooth="yes"/>
      <point x="1033" y="1051" type="line"/>
      <point x="568" y="167" type="line"/>
      <point x="418" y="1051" type="line"/>
      <point x="562" y="1051" type="line" smooth="yes"/>
      <point x="607" y="1051"/>
      <point x="628" y="1069"/>
      <point x="637" y="1119" type="curve" smooth="yes"/>
      <point x="646" y="1169"/>
      <point x="631" y="1187"/>
      <point x="586" y="1187" type="curve" smooth="yes"/>
      <point x="212" y="1187" type="line" smooth="yes"/>
      <point x="167" y="1187"/>
      <point x="146" y="1169"/>
      <point x="137" y="1119" type="curve" smooth="yes"/>
      <point x="128" y="1069"/>
      <point x="143" y="1051"/>
      <point x="188" y="1051" type="curve" smooth="yes"/>
      <point x="267" y="1051" type="line"/>
      <point x="445" y="43" type="line" smooth="yes"/>
      <point x="453" y="-3"/>
      <point x="483" y="-22"/>
      <point x="540" y="-22" type="curve" smooth="yes"/>
      <point x="597" y="-22"/>
      <point x="634" y="-4"/>
      <point x="659" y="43" type="curve" smooth="yes"/>
      <point x="1196" y="1051" type="line"/>
      <point x="1270" y="1051" type="line" smooth="yes"/>
      <point x="1315" y="1051"/>
      <point x="1336" y="1069"/>
      <point x="1345" y="1119" type="curve" smooth="yes"/>
      <point x="1354" y="1169"/>
      <point x="1339" y="1187"/>
      <point x="1294" y="1187" type="curve" smooth="yes"/>
    </contour>
  </outline>
</glyph>
<glyph name="W" format="1">
  <advance width="1228"/>
  <unicode hex="0057"/>
  <outline>
    <contour>
      <point x="990" y="1187" type="line" smooth="yes"/>
      <point x="945" y="1187"/>
      <point x="924" y="1169"/>
      <point x="915" y="1119" type="curve" smooth="yes"/>
      <point x="906" y="1069"/>
      <point x="921" y="1051"/>
      <point x="966" y="1051" type="curve" smooth="yes"/>
      <point x="1090" y="1051" type="line"/>
      <point x="844" y="247" type="line"/>
      <point x="760" y="845" type="line" smooth="yes"/>
      <point x="756" y="871"/>
      <point x="739" y="885"/>
      <point x="695" y="885" type="curve" smooth="yes"/>
      <point x="652" y="885"/>
      <point x="627" y="864"/>
      <point x="614" y="838" type="curve" smooth="yes"/>
      <point x="325" y="254" type="line"/>
      <point x="366" y="1051" type="line"/>
      <point x="512" y="1051" type="line" smooth="yes"/>
      <point x="557" y="1051"/>
      <point x="578" y="1069"/>
      <point x="587" y="1119" type="curve" smooth="yes"/>
      <point x="596" y="1169"/>
      <point x="581" y="1187"/>
      <point x="536" y="1187" type="curve" smooth="yes"/>
      <point x="192" y="1187" type="line" smooth="yes"/>
      <point x="147" y="1187"/>
      <point x="126" y="1169"/>
      <point x="117" y="1119" type="curve" smooth="yes"/>
      <point x="108" y="1069"/>
      <point x="123" y="1051"/>
      <point x="168" y="1051" type="curve" smooth="yes"/>
      <point x="221" y="1051" type="line"/>
      <point x="176" y="43" type="line" smooth="yes"/>
      <point x="174" y="-5"/>
      <point x="198" y="-22"/>
      <point x="249" y="-22" type="curve" smooth="yes"/>
      <point x="300" y="-22"/>
      <point x="341" y="-3"/>
      <point x="364" y="43" type="curve" smooth="yes"/>
      <point x="654" y="624" type="line"/>
      <point x="736" y="43" type="line" smooth="yes"/>
      <point x="742" y="-3"/>
      <point x="776" y="-22"/>
      <point x="827" y="-22" type="curve" smooth="yes"/>
      <point x="878" y="-22"/>
      <point x="908" y="-6"/>
      <point x="924" y="43" type="curve" smooth="yes"/>
      <point x="1240" y="1051" type="line"/>
      <point x="1290" y="1051" type="line" smooth="yes"/>
      <point x="1335" y="1051"/>
      <point x="1356" y="1069"/>
      <point x="1365" y="1119" type="curve" smooth="yes"/>
      <point x="1374" y="1169"/>
      <point x="1359" y="1187"/>
      <point x="1314" y="1187" type="curve" smooth="yes"/>
    </contour>
  </outline>
</glyph>
<glyph name="Y" format="1">
  <advance width="1228"/>
  <unicode hex="0059"/>
  <outline>
    <contour>
      <point x="940" y="1187" type="line" smooth="yes"/>
      <point x="895" y="1187"/>
      <point x="874" y="1169"/>
      <point x="865" y="1119" type="curve" smooth="yes"/>
      <point x="856" y="1069"/>
      <point x="871" y="1051"/>
      <point x="916" y="1051" type="curve" smooth="yes"/>
      <point x="977" y="1051" type="line"/>
      <point x="653" y="642" type="line"/>
      <point x="475" y="1051" type="line"/>
      <point x="572" y="1051" type="line" smooth="yes"/>
      <point x="617" y="1051"/>
      <point x="638" y="1069"/>
      <point x="647" y="1119" type="curve" smooth="yes"/>
      <point x="656" y="1169"/>
      <point x="641" y="1187"/>
      <point x="596" y="1187" type="curve" smooth="yes"/>
      <point x="262" y="1187" type="line" smooth="yes"/>
      <point x="217" y="1187"/>
      <point x="196" y="1169"/>
      <point x="187" y="1119" type="curve" smooth="yes"/>
      <point x="178" y="1069"/>
      <point x="193" y="1051"/>
      <point x="238" y="1051" type="curve" smooth="yes"/>
      <point x="312" y="1051" type="line"/>
      <point x="556" y="499" type="line"/>
      <point x="492" y="136" type="line"/>
      <point x="276" y="136" type="line" smooth="yes"/>
      <point x="231" y="136"/>
      <point x="210" y="118"/>
      <point x="201" y="68" type="curve" smooth="yes"/>
      <point x="193" y="18"/>
      <point x="208" y="0"/>
      <point x="253" y="0" type="curve" smooth="yes"/>
      <point x="855" y="0" type="line" smooth="yes"/>
      <point x="900" y="0"/>
      <point x="921" y="18"/>
      <point x="929" y="68" type="curve" smooth="yes"/>
      <point x="938" y="118"/>
      <point x="923" y="136"/>
      <point x="878" y="136" type="curve" smooth="yes"/>
      <point x="642" y="136" type="line"/>
      <point x="704" y="486" type="line"/>
      <point x="1156" y="1051" type="line"/>
      <point x="1220" y="1051" type="line" smooth="yes"/>
      <point x="1265" y="1051"/>
      <point x="1286" y="1069"/>
      <point x="1295" y="1119" type="curve" smooth="yes"/>
      <point x="1304" y="1169"/>
      <point x="1289" y="1187"/>
      <point x="1244" y="1187" type="curve" smooth="yes"/>
    </contour>
  </outline>
</glyph>
<glyph name="bracketright" format="1">
  <advance width="1228"/>
  <unicode hex="005D"/>
  <outline>
    <contour>
      <point x="593" y="1372" type="line" smooth="yes"/>
      <point x="548" y="1372"/>
      <point x="526" y="1352"/>
      <point x="517" y="1300" type="curve" smooth="yes"/>
      <point x="508" y="1248"/>
      <point x="522" y="1228"/>
      <point x="567" y="1228" type="curve" smooth="yes"/>
      <point x="894" y="1228" type="line"/>
      <point x="645" y="-189" type="line"/>
      <point x="318" y="-189" type="line" smooth="yes"/>
      <point x="273" y="-189"/>
      <point x="251" y="-209"/>
      <point x="242" y="-261" type="curve" smooth="yes"/>
      <point x="233" y="-313"/>
      <point x="247" y="-333"/>
      <point x="292" y="-333" type="curve" smooth="yes"/>
      <point x="706" y="-333" type="line" smooth="yes"/>
      <point x="751" y="-333"/>
      <point x="772" y="-315"/>
      <point x="781" y="-265" type="curve" smooth="yes"/>
      <point x="1058" y="1304" type="line" smooth="yes"/>
      <point x="1067" y="1354"/>
      <point x="1052" y="1372"/>
      <point x="1007" y="1372" type="curve" smooth="yes"/>
    </contour>
  </outline>
</glyph>
<glyph name="asciicircum" format="1">
  <advance width="1228"/>
  <unicode hex="005E"/>
  <outline>
    <contour>
      <point x="718" y="1209"/>
      <point x="699" y="1196"/>
      <point x="682" y="1172" type="curve" smooth="yes"/>
      <point x="270" y="581" type="line" smooth="yes"/>
      <point x="245" y="545"/>
      <point x="273" y="518"/>
      <point x="311" y="507" type="curve" smooth="yes"/>
      <point x="346" y="497"/>
      <point x="391" y="501"/>
      <point x="408" y="527" type="curve" smooth="yes"/>
      <point x="728" y="1007" type="line"/>
      <point x="882" y="527" type="line" smooth="yes"/>
      <point x="891" y="500"/>
      <point x="934" y="497"/>
      <point x="971" y="510" type="curve" smooth="yes"/>
      <point x="1005" y="522"/>
      <point x="1034" y="548"/>
      <point x="1022" y="581" type="curve" smooth="yes"/>
      <point x="818" y="1172" type="line" smooth="yes"/>
      <point x="809" y="1196"/>
      <point x="796" y="1209"/>
      <point x="757" y="1209" type="curve" smooth="yes"/>
    </contour>
  </outline>
</glyph>
<glyph name="c" format="1">
  <advance width="1228"/>
  <unicode hex="0063"/>
  <outline>
    <contour>
      <point x="1014" y="946"/>
      <point x="993" y="927"/>
      <point x="984" y="881" type="curve" smooth="yes"/>
      <point x="971" y="811" type="line"/>
      <point x="919" y="893"/>
      <point x="822" y="946"/>
      <point x="700" y="946" type="curve" smooth="yes"/>
      <point x="359" y="946"/>
      <point x="132" y="673"/>
      <point x="132" y="380" type="curve" smooth="yes"/>
      <point x="132" y="150"/>
      <point x="288" y="-22"/>
      <point x="545" y="-22" type="curve" smooth="yes"/>
      <point x="697" y="-22"/>
      <point x="857" y="27"/>
      <point x="979" y="105" type="curve" smooth="yes"/>
      <point x="1019" y="131"/>
      <point x="1029" y="167"/>
      <point x="1004" y="211" type="curve" smooth="yes"/>
      <point x="978" y="257"/>
      <point x="942" y="259"/>
      <point x="911" y="238" type="curve" smooth="yes"/>
      <point x="803" y="165"/>
      <point x="683" y="126"/>
      <point x="561" y="126" type="curve" smooth="yes"/>
      <point x="391" y="126"/>
      <point x="290" y="234"/>
      <point x="290" y="391" type="curve" smooth="yes"/>
      <point x="290" y="607"/>
      <point x="460" y="798"/>
      <point x="689" y="798" type="curve" smooth="yes"/>
      <point x="872" y="798"/>
      <point x="952" y="712"/>
      <point x="934" y="591" type="curve" smooth="yes"/>
      <point x="927" y="545"/>
      <point x="943" y="526"/>
      <point x="999" y="526" type="curve" smooth="yes"/>
      <point x="1055" y="526"/>
      <point x="1075" y="545"/>
      <point x="1083" y="591" type="curve" smooth="yes"/>
      <point x="1134" y="881" type="line" smooth="yes"/>
      <point x="1142" y="927"/>
      <point x="1126" y="946"/>
      <point x="1070" y="946" type="curve" smooth="yes"/>
    </contour>
  </outline>
</glyph>
<glyph name="d" format="1">
  <advance width="1228"/>
  <unicode hex="0064"/>
  <outline>
    <contour>
      <point x="875" y="1312" type="line" smooth="yes"/>
      <point x="830" y="1312"/>
      <point x="809" y="1294"/>
      <point x="800" y="1244" type="curve" smooth="yes"/>
      <point x="791" y="1194"/>
      <point x="806" y="1176"/>
      <point x="851" y="1176" type="curve" smooth="yes"/>
      <point x="1013" y="1176" type="line"/>
      <point x="943" y="778" type="line"/>
      <point x="881" y="878"/>
      <point x="779" y="946"/>
      <point x="645" y="946" type="curve" smooth="yes"/>
      <point x="292" y="946"/>
      <point x="131" y="625"/>
      <point x="131" y="366" type="curve" smooth="yes"/>
      <point x="131" y="127"/>
      <point x="280" y="-22"/>
      <point x="495" y="-22" type="curve" smooth="yes"/>
      <point x="628" y="-22"/>
      <point x="742" y="40"/>
      <point x="842" y="148" type="curve"/>
      <point x="827" y="68" type="line" smooth="yes"/>
      <point x="818" y="18"/>
      <point x="834" y="0"/>
      <point x="879" y="0" type="curve" smooth="yes"/>
      <point x="1038" y="0" type="line" smooth="yes"/>
      <point x="1083" y="0"/>
      <point x="1104" y="18"/>
      <point x="1112" y="68" type="curve" smooth="yes"/>
      <point x="1121" y="118"/>
      <point x="1106" y="136"/>
      <point x="1061" y="136" type="curve" smooth="yes"/>
      <point x="979" y="136" type="line"/>
      <point x="1175" y="1244" type="line" smooth="yes"/>
      <point x="1184" y="1294"/>
      <point x="1169" y="1312"/>
      <point x="1124" y="1312" type="curve" smooth="yes"/>
    </contour>
    <contour>
      <point x="793" y="798"/>
      <point x="894" y="705"/>
      <point x="894" y="541" type="curve" smooth="yes"/>
      <point x="894" y="335"/>
      <point x="758" y="126"/>
      <point x="521" y="126" type="curve" smooth="yes"/>
      <point x="368" y="126"/>
      <point x="288" y="226"/>
      <point x="288" y="375" type="curve" smooth="yes"/>
      <point x="288" y="581"/>
      <point x="414" y="798"/>
      <point x="639" y="798" type="curve" smooth="yes"/>
    </contour>
  </outline>
</glyph>
<glyph name="e" format="1">
  <advance width="1228"/>
  <unicode hex="0065"/>
  <outline>
    <contour>
      <point x="383" y="946"/>
      <point x="152" y="684"/>
      <point x="152" y="354" type="curve" smooth="yes"/>
      <point x="152" y="122"/>
      <point x="291" y="-22"/>
      <point x="543" y="-22" type="curve" smooth="yes"/>
      <point x="698" y="-22"/>
      <point x="860" y="16"/>
      <point x="973" y="66" type="curve" smooth="yes"/>
      <point x="1015" y="85"/>
      <point x="1030" y="114"/>
      <point x="1014" y="166" type="curve" smooth="yes"/>
      <point x="998" y="217"/>
      <point x="966" y="232"/>
      <point x="933" y="215" type="curve" smooth="yes"/>
      <point x="832" y="164"/>
      <point x="692" y="123"/>
      <point x="558" y="123" type="curve" smooth="yes"/>
      <point x="402" y="123"/>
      <point x="308" y="194"/>
      <point x="308" y="361" type="curve" smooth="yes"/>
      <point x="308" y="602"/>
      <point x="453" y="801"/>
      <point x="708" y="801" type="curve" smooth="yes"/>
      <point x="853" y="801"/>
      <point x="925" y="734"/>
      <point x="925" y="650" type="curve" smooth="yes"/>
      <point x="925" y="592"/>
      <point x="903" y="558"/>
      <point x="826" y="550" type="curve" smooth="yes"/>
      <point x="285" y="488" type="line"/>
      <point x="252" y="348" type="line"/>
      <point x="857" y="411" type="line" smooth="yes"/>
      <point x="1019" y="428"/>
      <point x="1083" y="520"/>
      <point x="1083" y="655" type="curve" smooth="yes"/>
      <point x="1083" y="821"/>
      <point x="945" y="946"/>
      <point x="723" y="946" type="curve" smooth="yes"/>
    </contour>
  </outline>
</glyph>
<glyph name="j" format="1">
  <advance width="1228"/>
  <unicode hex="006A"/>
  <outline>
    <contour>
      <point x="422" y="924" type="line" smooth="yes"/>
      <point x="377" y="924"/>
      <point x="356" y="906"/>
      <point x="347" y="856" type="curve" smooth="yes"/>
      <point x="339" y="806"/>
      <point x="353" y="788"/>
      <point x="398" y="788" type="curve" smooth="yes"/>
      <point x="821" y="788" type="line"/>
      <point x="675" y="-44" type="line" smooth="yes"/>
      <point x="649" y="-191"/>
      <point x="593" y="-264"/>
      <point x="459" y="-264" type="curve" smooth="yes"/>
      <point x="366" y="-264"/>
      <point x="269" y="-223"/>
      <point x="191" y="-167" type="curve" smooth="yes"/>
      <point x="164" y="-147"/>
      <point x="130" y="-148"/>
      <point x="100" y="-199" type="curve" smooth="yes"/>
      <point x="70" y="-250"/>
      <point x="82" y="-276"/>
      <point x="111" y="-297" type="curve" smooth="yes"/>
      <point x="200" y="-360"/>
      <point x="328" y="-410"/>
      <point x="443" y="-410" type="curve" smooth="yes"/>
      <point x="675" y="-410"/>
      <point x="783" y="-286"/>
      <point x="823" y="-57" type="curve" smooth="yes"/>
      <point x="983" y="856" type="line" smooth="yes"/>
      <point x="992" y="906"/>
      <point x="977" y="924"/>
      <point x="932" y="924" type="curve" smooth="yes"/>
    </contour>
    <contour>
      <point x="902" y="1363"/>
      <point x="879" y="1344"/>
      <point x="871" y="1298" type="curve" smooth="yes"/>
      <point x="848" y="1168" type="line" smooth="yes"/>
      <point x="840" y="1122"/>
      <point x="856" y="1103"/>
      <point x="932" y="1103" type="curve" smooth="yes"/>
      <point x="1008" y="1103"/>
      <point x="1030" y="1122"/>
      <point x="1038" y="1168" type="curve" smooth="yes"/>
      <point x="1061" y="1298" type="line" smooth="yes"/>
      <point x="1069" y="1344"/>
      <point x="1054" y="1363"/>
      <point x="978" y="1363" type="curve" smooth="yes"/>
    </contour>
  </outline>
</glyph>
<glyph name="m" format="1">
  <advance width="1228"/>
  <unicode hex="006D"/>
  <outline>
    <contour>
      <point x="919" y="946"/>
      <point x="822" y="889"/>
      <point x="746" y="765" type="curve"/>
      <point x="740" y="884"/>
      <point x="675" y="946"/>
      <point x="588" y="946" type="curve" smooth="yes"/>
      <point x="506" y="946"/>
      <point x="410" y="886"/>
      <point x="334" y="757" type="curve"/>
      <point x="351" y="856" type="line" smooth="yes"/>
      <point x="360" y="906"/>
      <point x="345" y="924"/>
      <point x="300" y="924" type="curve" smooth="yes"/>
      <point x="151" y="924" type="line" smooth="yes"/>
      <point x="106" y="924"/>
      <point x="85" y="906"/>
      <point x="76" y="856" type="curve" smooth="yes"/>
      <point x="68" y="806"/>
      <point x="82" y="788"/>
      <point x="127" y="788" type="curve" smooth="yes"/>
      <point x="209" y="788" type="line"/>
      <point x="80" y="55" type="line" smooth="yes"/>
      <point x="72" y="9"/>
      <point x="87" y="-10"/>
      <point x="143" y="-10" type="curve" smooth="yes"/>
      <point x="145" y="-10" type="line" smooth="yes"/>
      <point x="198" y="-10"/>
      <point x="222" y="9"/>
      <point x="230" y="55" type="curve" smooth="yes"/>
      <point x="297" y="437" type="line" smooth="yes"/>
      <point x="332" y="639"/>
      <point x="440" y="798"/>
      <point x="535" y="798" type="curve" smooth="yes"/>
      <point x="588" y="798"/>
      <point x="611" y="768"/>
      <point x="611" y="712" type="curve" smooth="yes"/>
      <point x="611" y="696"/>
      <point x="609" y="679"/>
      <point x="606" y="660" type="curve" smooth="yes"/>
      <point x="499" y="55" type="line" smooth="yes"/>
      <point x="491" y="9"/>
      <point x="506" y="-10"/>
      <point x="562" y="-10" type="curve" smooth="yes"/>
      <point x="564" y="-10" type="line" smooth="yes"/>
      <point x="617" y="-10"/>
      <point x="641" y="9"/>
      <point x="649" y="55" type="curve" smooth="yes"/>
      <point x="716" y="437" type="line" smooth="yes"/>
      <point x="751" y="639"/>
      <point x="859" y="798"/>
      <point x="954" y="798" type="curve" smooth="yes"/>
      <point x="1007" y="798"/>
      <point x="1030" y="768"/>
      <point x="1030" y="712" type="curve" smooth="yes"/>
      <point x="1030" y="697"/>
      <point x="1028" y="679"/>
      <point x="1025" y="660" type="curve" smooth="yes"/>
      <point x="920" y="68" type="line" smooth="yes"/>
      <point x="911" y="18"/>
      <point x="927" y="0"/>
      <point x="972" y="0" type="curve" smooth="yes"/>
      <point x="995" y="0" type="line" smooth="yes"/>
      <point x="1040" y="0"/>
      <point x="1061" y="18"/>
      <point x="1070" y="68" type="curve" smooth="yes"/>
      <point x="1176" y="668" type="line" smooth="yes"/>
      <point x="1181" y="694"/>
      <point x="1183" y="718"/>
      <point x="1183" y="740" type="curve" smooth="yes"/>
      <point x="1183" y="873"/>
      <point x="1104" y="946"/>
      <point x="1005" y="946" type="curve" smooth="yes"/>
    </contour>
    <contour>
      <point x="1007" y="136" type="line"/>
      <point x="983" y="0" type="line"/>
      <point x="1121" y="0" type="line" smooth="yes"/>
      <point x="1166" y="0"/>
      <point x="1187" y="18"/>
      <point x="1195" y="68" type="curve" smooth="yes"/>
      <point x="1203" y="118"/>
      <point x="1189" y="136"/>
      <point x="1144" y="136" type="curve" smooth="yes"/>
    </contour>
  </outline>
</glyph>
<glyph name="o" format="1">
  <advance width="1228"/>
  <unicode hex="006F"/>
  <outline>
    <contour>
      <point x="359" y="946"/>
      <point x="138" y="679"/>
      <point x="138" y="386" type="curve" smooth="yes"/>
      <point x="138" y="150"/>
      <point x="309" y="-22"/>
      <point x="560" y="-22" type="curve" smooth="yes"/>
      <point x="891" y="-22"/>
      <point x="1112" y="245"/>
      <point x="1112" y="538" type="curve" smooth="yes"/>
      <point x="1112" y="774"/>
      <point x="941" y="946"/>
      <point x="690" y="946" type="curve" smooth="yes"/>
    </contour>
    <contour>
      <point x="854" y="798"/>
      <point x="955" y="689"/>
      <point x="955" y="530" type="curve" smooth="yes"/>
      <point x="955" y="317"/>
      <point x="799" y="126"/>
      <point x="576" y="126" type="curve" smooth="yes"/>
      <point x="396" y="126"/>
      <point x="295" y="235"/>
      <point x="295" y="394" type="curve" smooth="yes"/>
      <point x="295" y="607"/>
      <point x="451" y="798"/>
      <point x="674" y="798" type="curve" smooth="yes"/>
    </contour>
  </outline>
</glyph>
<glyph name="p" format="1">
  <advance width="1228"/>
  <unicode hex="0070"/>
  <outline>
    <contour>
      <point x="621" y="946"/>
      <point x="507" y="884"/>
      <point x="407" y="776" type="curve"/>
      <point x="422" y="856" type="line" smooth="yes"/>
      <point x="431" y="906"/>
      <point x="415" y="924"/>
      <point x="370" y="924" type="curve" smooth="yes"/>
      <point x="211" y="924" type="line" smooth="yes"/>
      <point x="166" y="924"/>
      <point x="145" y="906"/>
      <point x="137" y="856" type="curve" smooth="yes"/>
      <point x="128" y="806"/>
      <point x="143" y="788"/>
      <point x="188" y="788" type="curve" smooth="yes"/>
      <point x="270" y="788" type="line"/>
      <point x="86" y="-252" type="line"/>
      <point x="-15" y="-252" type="line" smooth="yes"/>
      <point x="-60" y="-252"/>
      <point x="-81" y="-270"/>
      <point x="-89" y="-320" type="curve" smooth="yes"/>
      <point x="-98" y="-370"/>
      <point x="-84" y="-388"/>
      <point x="-39" y="-388" type="curve" smooth="yes"/>
      <point x="385" y="-388" type="line" smooth="yes"/>
      <point x="430" y="-388"/>
      <point x="451" y="-370"/>
      <point x="460" y="-320" type="curve" smooth="yes"/>
      <point x="469" y="-270"/>
      <point x="454" y="-252"/>
      <point x="409" y="-252" type="curve" smooth="yes"/>
      <point x="236" y="-252" type="line"/>
      <point x="306" y="146" type="line"/>
      <point x="368" y="46"/>
      <point x="470" y="-22"/>
      <point x="604" y="-22" type="curve" smooth="yes"/>
      <point x="957" y="-22"/>
      <point x="1118" y="299"/>
      <point x="1118" y="558" type="curve" smooth="yes"/>
      <point x="1118" y="797"/>
      <point x="969" y="946"/>
      <point x="754" y="946" type="curve" smooth="yes"/>
    </contour>
    <contour>
      <point x="881" y="798"/>
      <point x="961" y="698"/>
      <point x="961" y="549" type="curve" smooth="yes"/>
      <point x="961" y="343"/>
      <point x="835" y="126"/>
      <point x="610" y="126" type="curve" smooth="yes"/>
      <point x="456" y="126"/>
      <point x="355" y="219"/>
      <point x="355" y="383" type="curve" smooth="yes"/>
      <point x="355" y="589"/>
      <point x="491" y="798"/>
      <point x="728" y="798" type="curve" smooth="yes"/>
    </contour>
  </outline>
</glyph>
<glyph name="v" format="1">
  <advance width="1228"/>
  <unicode hex="0076"/>
  <outline>
    <contour>
      <point x="893" y="924" type="line" smooth="yes"/>
      <point x="848" y="924"/>
      <point x="827" y="906"/>
      <point x="818" y="856" type="curve" smooth="yes"/>
      <point x="810" y="806"/>
      <point x="824" y="788"/>
      <point x="869" y="788" type="curve" smooth="yes"/>
      <point x="952" y="788" type="line"/>
      <point x="561" y="136" type="line"/>
      <point x="403" y="788" type="line"/>
      <point x="535" y="788" type="line" smooth="yes"/>
      <point x="580" y="788"/>
      <point x="602" y="806"/>
      <point x="610" y="856" type="curve" smooth="yes"/>
      <point x="619" y="906"/>
      <point x="604" y="924"/>
      <point x="559" y="924" type="curve" smooth="yes"/>
      <point x="205" y="924" type="line" smooth="yes"/>
      <point x="160" y="924"/>
      <point x="139" y="906"/>
      <point x="130" y="856" type="curve" smooth="yes"/>
      <point x="122" y="806"/>
      <point x="136" y="788"/>
      <point x="181" y="788" type="curve" smooth="yes"/>
      <point x="247" y="788" type="line"/>
      <point x="436" y="43" type="line" smooth="yes"/>
      <point x="447" y="-1"/>
      <point x="475" y="-22"/>
      <point x="541" y="-22" type="curve" smooth="yes"/>
      <point x="607" y="-22"/>
      <point x="643" y="-2"/>
      <point x="670" y="43" type="curve" smooth="yes"/>
      <point x="1124" y="788" type="line"/>
      <point x="1183" y="788" type="line" smooth="yes"/>
      <point x="1228" y="788"/>
      <point x="1250" y="806"/>
      <point x="1258" y="856" type="curve" smooth="yes"/>
      <point x="1267" y="906"/>
      <point x="1252" y="924"/>
      <point x="1207" y="924" type="curve" smooth="yes"/>
    </contour>
  </outline>
</glyph>
<glyph name="z" format="1">
  <advance width="1228"/>
  <unicode hex="007A"/>
  <outline>
    <contour>
      <point x="343" y="924" type="line" smooth="yes"/>
      <point x="298" y="924"/>
      <point x="277" y="906"/>
      <point x="268" y="856" type="curve" smooth="yes"/>
      <point x="230" y="639" type="line" smooth="yes"/>
      <point x="222" y="593"/>
      <point x="238" y="574"/>
      <point x="294" y="574" type="curve" smooth="yes"/>
      <point x="350" y="574"/>
      <point x="372" y="593"/>
      <point x="380" y="639" type="curve" smooth="yes"/>
      <point x="406" y="788" type="line"/>
      <point x="852" y="788" type="line"/>
      <point x="151" y="113" type="line" smooth="yes"/>
      <point x="139" y="102"/>
      <point x="132" y="87"/>
      <point x="129" y="68" type="curve" smooth="yes"/>
      <point x="121" y="18"/>
      <point x="136" y="0"/>
      <point x="181" y="0" type="curve" smooth="yes"/>
      <point x="927" y="0" type="line" smooth="yes"/>
      <point x="972" y="0"/>
      <point x="992" y="18"/>
      <point x="1001" y="68" type="curve" smooth="yes"/>
      <point x="1044" y="308" type="line" smooth="yes"/>
      <point x="1052" y="354"/>
      <point x="1036" y="373"/>
      <point x="980" y="373" type="curve" smooth="yes"/>
      <point x="924" y="373"/>
      <point x="902" y="354"/>
      <point x="894" y="308" type="curve" smooth="yes"/>
      <point x="863" y="136" type="line"/>
      <point x="387" y="136" type="line"/>
      <point x="1087" y="810" type="line" smooth="yes"/>
      <point x="1098" y="820"/>
      <point x="1107" y="835"/>
      <point x="1110" y="856" type="curve" smooth="yes"/>
      <point x="1119" y="906"/>
      <point x="1104" y="924"/>
      <point x="1059" y="924" type="curve" smooth="yes"/>
    </contour>
  </outline>
</glyph>
<glyph name="braceleft" format="1">
  <advance width="1228"/>
  <unicode hex="007B"/>
  <outline>
    <contour>
      <point x="806" y="1372"/>
      <point x="641" y="1256"/>
      <point x="607" y="975" type="curve" smooth="yes"/>
      <point x="596" y="885" type="line" smooth="yes"/>
      <point x="575" y="717"/>
      <point x="479" y="613"/>
      <point x="276" y="613" type="curve" smooth="yes"/>
      <point x="231" y="613"/>
      <point x="209" y="593"/>
      <point x="202" y="541" type="curve" smooth="yes"/>
      <point x="195" y="489"/>
      <point x="210" y="469"/>
      <point x="255" y="469" type="curve" smooth="yes"/>
      <point x="468" y="469"/>
      <point x="519" y="376"/>
      <point x="480" y="203" type="curve" smooth="yes"/>
      <point x="459" y="110" type="line" smooth="yes"/>
      <point x="394" y="-180"/>
      <point x="531" y="-333"/>
      <point x="810" y="-333" type="curve" smooth="yes"/>
      <point x="855" y="-333"/>
      <point x="877" y="-313"/>
      <point x="884" y="-261" type="curve" smooth="yes"/>
      <point x="891" y="-209"/>
      <point x="879" y="-189"/>
      <point x="834" y="-189" type="curve" smooth="yes"/>
      <point x="632" y="-189"/>
      <point x="563" y="-96"/>
      <point x="605" y="101" type="curve" smooth="yes"/>
      <point x="629" y="213" type="line" smooth="yes"/>
      <point x="661" y="364"/>
      <point x="615" y="475"/>
      <point x="450" y="536" type="curve"/>
      <point x="451" y="546" type="line"/>
      <point x="633" y="599"/>
      <point x="719" y="705"/>
      <point x="742" y="875" type="curve" smooth="yes"/>
      <point x="752" y="947" type="line" smooth="yes"/>
      <point x="779" y="1143"/>
      <point x="862" y="1228"/>
      <point x="1066" y="1228" type="curve" smooth="yes"/>
      <point x="1111" y="1228"/>
      <point x="1132" y="1248"/>
      <point x="1139" y="1300" type="curve" smooth="yes"/>
      <point x="1146" y="1352"/>
      <point x="1130" y="1372"/>
      <point x="1085" y="1372" type="curve" smooth="yes"/>
    </contour>
  </outline>
</glyph>
<glyph name="braceright" format="1">
  <advance width="1228"/>
  <unicode hex="007D"/>
  <outline>
    <contour>
      <point x="443" y="-333"/>
      <point x="608" y="-214"/>
      <point x="642" y="64" type="curve" smooth="yes"/>
      <point x="658" y="194" type="line" smooth="yes"/>
      <point x="678" y="360"/>
      <point x="777" y="469"/>
      <point x="980" y="469" type="curve" smooth="yes"/>
      <point x="1025" y="469"/>
      <point x="1047" y="489"/>
      <point x="1054" y="541" type="curve" smooth="yes"/>
      <point x="1061" y="593"/>
      <point x="1046" y="613"/>
      <point x="1001" y="613" type="curve" smooth="yes"/>
      <point x="794" y="613"/>
      <point x="746" y="702"/>
      <point x="780" y="877" type="curve" smooth="yes"/>
      <point x="790" y="929" type="line" smooth="yes"/>
      <point x="846" y="1221"/>
      <point x="718" y="1372"/>
      <point x="439" y="1372" type="curve" smooth="yes"/>
      <point x="394" y="1372"/>
      <point x="372" y="1352"/>
      <point x="365" y="1300" type="curve" smooth="yes"/>
      <point x="358" y="1248"/>
      <point x="370" y="1228"/>
      <point x="415" y="1228" type="curve" smooth="yes"/>
      <point x="617" y="1228"/>
      <point x="680" y="1137"/>
      <point x="644" y="938" type="curve" smooth="yes"/>
      <point x="633" y="877" type="line" smooth="yes"/>
      <point x="606" y="729"/>
      <point x="647" y="611"/>
      <point x="806" y="550" type="curve"/>
      <point x="805" y="540" type="line"/>
      <point x="623" y="487"/>
      <point x="536" y="378"/>
      <point x="513" y="210" type="curve" smooth="yes"/>
      <point x="497" y="92" type="line" smooth="yes"/>
      <point x="471" y="-102"/>
      <point x="387" y="-189"/>
      <point x="183" y="-189" type="curve" smooth="yes"/>
      <point x="138" y="-189"/>
      <point x="117" y="-209"/>
      <point x="110" y="-261" type="curve" smooth="yes"/>
      <point x="103" y="-313"/>
      <point x="119" y="-333"/>
      <point x="164" y="-333" type="curve" smooth="yes"/>
    </contour>
  </outline>
</glyph>
<glyph name="brokenbar" format="1">
  <advance width="1228"/>
  <unicode hex="00A6"/>
  <outline>
    <contour>
      <point x="733" y="1394"/>
      <point x="710" y="1375"/>
      <point x="702" y="1329" type="curve" smooth="yes"/>
      <point x="597" y="730" type="line" smooth="yes"/>
      <point x="589" y="684"/>
      <point x="605" y="665"/>
      <point x="661" y="665" type="curve" smooth="yes"/>
      <point x="717" y="665"/>
      <point x="739" y="684"/>
      <point x="747" y="730" type="curve" smooth="yes"/>
      <point x="852" y="1329" type="line" smooth="yes"/>
      <point x="860" y="1375"/>
      <point x="845" y="1394"/>
      <point x="789" y="1394" type="curve" smooth="yes"/>
    </contour>
    <contour>
      <point x="553" y="374"/>
      <point x="531" y="355"/>
      <point x="523" y="309" type="curve" smooth="yes"/>
      <point x="417" y="-290" type="line" smooth="yes"/>
      <point x="409" y="-336"/>
      <point x="424" y="-355"/>
      <point x="480" y="-355" type="curve" smooth="yes"/>
      <point x="536" y="-355"/>
      <point x="559" y="-336"/>
      <point x="567" y="-290" type="curve" smooth="yes"/>
      <point x="673" y="309" type="line" smooth="yes"/>
      <point x="681" y="355"/>
      <point x="665" y="374"/>
      <point x="609" y="374" type="curve" smooth="yes"/>
    </contour>
  </outline>
</glyph>
<glyph name="ordfeminine" format="1">
  <advance width="1228"/>
  <unicode hex="00AA"/>
  <outline>
    <contour>
      <point x="443" y="1209"/>
      <point x="309" y="962"/>
      <point x="309" y="763" type="curve" smooth="yes"/>
      <point x="309" y="580"/>
      <point x="433" y="465"/>
      <point x="599" y="465" type="curve" smooth="yes"/>
      <point x="722" y="465"/>
      <point x="815" y="513"/>
      <point x="901" y="623" type="curve"/>
      <point x="878" y="640" type="line"/>
      <point x="883" y="538"/>
      <point x="948" y="483"/>
      <point x="1038" y="483" type="curve" smooth="yes"/>
      <point x="1048" y="483" type="line" smooth="yes"/>
      <point x="1085" y="483"/>
      <point x="1102" y="504"/>
      <point x="1111" y="547" type="curve" smooth="yes"/>
      <point x="1118" y="590"/>
      <point x="1108" y="612"/>
      <point x="1070" y="612" type="curve" smooth="yes"/>
      <point x="1066" y="612" type="line" smooth="yes"/>
      <point x="1013" y="612"/>
      <point x="981" y="642"/>
      <point x="994" y="714" type="curve" smooth="yes"/>
      <point x="1071" y="1150" type="line" smooth="yes"/>
      <point x="1077" y="1185"/>
      <point x="1068" y="1200"/>
      <point x="1015" y="1200" type="curve" smooth="yes"/>
      <point x="962" y="1200"/>
      <point x="950" y="1185"/>
      <point x="943" y="1150" type="curve" smooth="yes"/>
      <point x="930" y="1083" type="line"/>
      <point x="893" y="1158"/>
      <point x="821" y="1209"/>
      <point x="714" y="1209" type="curve" smooth="yes"/>
    </contour>
    <contour>
      <point x="820" y="1077"/>
      <point x="887" y="1020"/>
      <point x="887" y="898" type="curve" smooth="yes"/>
      <point x="887" y="739"/>
      <point x="801" y="597"/>
      <point x="619" y="597" type="curve" smooth="yes"/>
      <point x="516" y="597"/>
      <point x="452" y="660"/>
      <point x="452" y="770" type="curve" smooth="yes"/>
      <point x="452" y="929"/>
      <point x="552" y="1077"/>
      <point x="705" y="1077" type="curve" smooth="yes"/>
    </contour>
  </outline>
</glyph>
<glyph name="macron" format="1">
  <advance width="1228"/>
  <unicode hex="00AF"/>
  <outline>
    <contour>
      <point x="482" y="1246" type="line" smooth="yes"/>
      <point x="437" y="1246"/>
      <point x="416" y="1228"/>
      <point x="407" y="1178" type="curve" smooth="yes"/>
      <point x="398" y="1128"/>
      <point x="413" y="1110"/>
      <point x="458" y="1110" type="curve" smooth="yes"/>
      <point x="1020" y="1110" type="line" smooth="yes"/>
      <point x="1065" y="1110"/>
      <point x="1086" y="1128"/>
      <point x="1095" y="1178" type="curve" smooth="yes"/>
      <point x="1104" y="1228"/>
      <point x="1089" y="1246"/>
      <point x="1044" y="1246" type="curve" smooth="yes"/>
    </contour>
  </outline>
</glyph>
<glyph name="twosuperior" format="1">
  <advance width="1228"/>
  <unicode hex="00B2"/>
  <outline>
    <contour>
      <point x="681" y="1334"/>
      <point x="572" y="1305"/>
      <point x="483" y="1252" type="curve" smooth="yes"/>
      <point x="468" y="1243"/>
      <point x="457" y="1229"/>
      <point x="454" y="1210" type="curve" smooth="yes"/>
      <point x="428" y="1063" type="line" smooth="yes"/>
      <point x="422" y="1030"/>
      <point x="437" y="1012"/>
      <point x="486" y="1012" type="curve" smooth="yes"/>
      <point x="536" y="1012"/>
      <point x="557" y="1030"/>
      <point x="563" y="1063" type="curve" smooth="yes"/>
      <point x="581" y="1166" type="line"/>
      <point x="631" y="1190"/>
      <point x="692" y="1205"/>
      <point x="749" y="1205" type="curve" smooth="yes"/>
      <point x="838" y="1205"/>
      <point x="883" y="1163"/>
      <point x="883" y="1099" type="curve" smooth="yes"/>
      <point x="883" y="1023"/>
      <point x="836" y="971"/>
      <point x="739" y="900" type="curve" smooth="yes"/>
      <point x="358" y="620" type="line" smooth="yes"/>
      <point x="336" y="604"/>
      <point x="320" y="584"/>
      <point x="315" y="555" type="curve" smooth="yes"/>
      <point x="307" y="509"/>
      <point x="318" y="483"/>
      <point x="350" y="483" type="curve" smooth="yes"/>
      <point x="921" y="483" type="line" smooth="yes"/>
      <point x="953" y="483"/>
      <point x="974" y="501"/>
      <point x="980" y="536" type="curve" smooth="yes"/>
      <point x="1007" y="686" type="line" smooth="yes"/>
      <point x="1013" y="719"/>
      <point x="998" y="737"/>
      <point x="949" y="737" type="curve" smooth="yes"/>
      <point x="899" y="737"/>
      <point x="878" y="719"/>
      <point x="872" y="686" type="curve" smooth="yes"/>
      <point x="858" y="608" type="line"/>
      <point x="536" y="608" type="line"/>
      <point x="810" y="806" type="line" smooth="yes"/>
      <point x="954" y="910"/>
      <point x="1026" y="992"/>
      <point x="1026" y="1111" type="curve" smooth="yes"/>
      <point x="1026" y="1250"/>
      <point x="930" y="1334"/>
      <point x="773" y="1334" type="curve" smooth="yes"/>
    </contour>
  </outline>
</glyph>
<glyph name="threesuperior" format="1">
  <advance width="1228"/>
  <unicode hex="00B3"/>
  <outline>
    <contour>
      <point x="676" y="1334"/>
      <point x="572" y="1312"/>
      <point x="485" y="1265" type="curve" smooth="yes"/>
      <point x="471" y="1257"/>
      <point x="460" y="1242"/>
      <point x="457" y="1223" type="curve" smooth="yes"/>
      <point x="437" y="1113" type="line" smooth="yes"/>
      <point x="431" y="1080"/>
      <point x="446" y="1062"/>
      <point x="495" y="1062" type="curve" smooth="yes"/>
      <point x="545" y="1062"/>
      <point x="566" y="1080"/>
      <point x="572" y="1113" type="curve" smooth="yes"/>
      <point x="583" y="1176" type="line"/>
      <point x="629" y="1194"/>
      <point x="679" y="1205"/>
      <point x="745" y="1205" type="curve" smooth="yes"/>
      <point x="827" y="1205"/>
      <point x="883" y="1171"/>
      <point x="883" y="1104" type="curve" smooth="yes"/>
      <point x="883" y="1021"/>
      <point x="830" y="965"/>
      <point x="689" y="965" type="curve" smooth="yes"/>
      <point x="650" y="965" type="line" smooth="yes"/>
      <point x="616" y="965"/>
      <point x="601" y="941"/>
      <point x="595" y="905" type="curve" smooth="yes"/>
      <point x="589" y="868"/>
      <point x="595" y="840"/>
      <point x="628" y="840" type="curve" smooth="yes"/>
      <point x="680" y="840" type="line" smooth="yes"/>
      <point x="779" y="840"/>
      <point x="845" y="817"/>
      <point x="845" y="741" type="curve" smooth="yes"/>
      <point x="845" y="647"/>
      <point x="765" y="594"/>
      <point x="633" y="594" type="curve" smooth="yes"/>
      <point x="568" y="594"/>
      <point x="486" y="614"/>
      <point x="415" y="648" type="curve" smooth="yes"/>
      <point x="387" y="661"/>
      <point x="366" y="648"/>
      <point x="345" y="609" type="curve" smooth="yes"/>
      <point x="324" y="570"/>
      <point x="329" y="545"/>
      <point x="351" y="532" type="curve" smooth="yes"/>
      <point x="427" y="489"/>
      <point x="526" y="465"/>
      <point x="628" y="465" type="curve" smooth="yes"/>
      <point x="863" y="465"/>
      <point x="987" y="584"/>
      <point x="987" y="751" type="curve" smooth="yes"/>
      <point x="987" y="828"/>
      <point x="947" y="884"/>
      <point x="878" y="913" type="curve"/>
      <point x="971" y="956"/>
      <point x="1026" y="1030"/>
      <point x="1026" y="1121" type="curve" smooth="yes"/>
      <point x="1026" y="1251"/>
      <point x="931" y="1334"/>
      <point x="764" y="1334" type="curve" smooth="yes"/>
    </contour>
  </outline>
</glyph>
<glyph name="acute" format="1">
  <advance width="1228"/>
  <unicode hex="00B4"/>
  <outline>
    <contour>
      <point x="554" y="1133" type="line" smooth="yes"/>
      <point x="531" y="1120"/>
      <point x="526" y="1094"/>
      <point x="535" y="1071" type="curve" smooth="yes"/>
      <point x="544" y="1048"/>
      <point x="565" y="1031"/>
      <point x="590" y="1039" type="curve" smooth="yes"/>
      <point x="1071" y="1202" type="line" smooth="yes"/>
      <point x="1098" y="1211"/>
      <point x="1110" y="1238"/>
      <point x="1071" y="1309" type="curve" smooth="yes"/>
      <point x="1029" y="1384"/>
      <point x="1004" y="1382"/>
      <point x="970" y="1363" type="curve" smooth="yes"/>
    </contour>
  </outline>
</glyph>
<glyph name="paragraph" format="1">
  <advance width="1228"/>
  <unicode hex="00B6"/>
  <outline>
    <contour>
      <point x="677" y="1187" type="line" smooth="yes"/>
      <point x="360" y="1187"/>
      <point x="205" y="997"/>
      <point x="205" y="789" type="curve" smooth="yes"/>
      <point x="205" y="617"/>
      <point x="337" y="508"/>
      <point x="544" y="502" type="curve"/>
      <point x="395" y="-345" type="line" smooth="yes"/>
      <point x="387" y="-391"/>
      <point x="402" y="-410"/>
      <point x="458" y="-410" type="curve" smooth="yes"/>
      <point x="514" y="-410"/>
      <point x="537" y="-391"/>
      <point x="545" y="-345" type="curve" smooth="yes"/>
      <point x="791" y="1051" type="line"/>
      <point x="951" y="1051" type="line"/>
      <point x="705" y="-345" type="line" smooth="yes"/>
      <point x="697" y="-391"/>
      <point x="712" y="-410"/>
      <point x="768" y="-410" type="curve" smooth="yes"/>
      <point x="824" y="-410"/>
      <point x="847" y="-391"/>
      <point x="855" y="-345" type="curve" smooth="yes"/>
      <point x="1101" y="1051" type="line"/>
      <point x="1169" y="1051" type="line" smooth="yes"/>
      <point x="1214" y="1051"/>
      <point x="1235" y="1069"/>
      <point x="1244" y="1119" type="curve" smooth="yes"/>
      <point x="1253" y="1169"/>
      <point x="1238" y="1187"/>
      <point x="1193" y="1187" type="curve" smooth="yes"/>
    </contour>
  </outline>
</glyph>
<glyph name="cedilla" format="1">
  <advance width="1228"/>
  <unicode hex="00B8"/>
  <outline>
    <contour>
      <point x="463" y="28" type="line"/>
      <point x="428" y="-175" type="line" smooth="yes"/>
      <point x="421" y="-213"/>
      <point x="441" y="-218"/>
      <point x="460" y="-217" type="curve" smooth="yes"/>
      <point x="545" y="-212"/>
      <point x="594" y="-226"/>
      <point x="594" y="-271" type="curve" smooth="yes"/>
      <point x="594" y="-317"/>
      <point x="558" y="-352"/>
      <point x="478" y="-352" type="curve" smooth="yes"/>
      <point x="411" y="-352"/>
      <point x="340" y="-338"/>
      <point x="291" y="-318" type="curve" smooth="yes"/>
      <point x="269" y="-309"/>
      <point x="245" y="-329"/>
      <point x="232" y="-354" type="curve" smooth="yes"/>
      <point x="218" y="-380"/>
      <point x="216" y="-412"/>
      <point x="239" y="-424" type="curve" smooth="yes"/>
      <point x="302" y="-456"/>
      <point x="388" y="-472"/>
      <point x="477" y="-472" type="curve" smooth="yes"/>
      <point x="581" y="-472"/>
      <point x="653" y="-445"/>
      <point x="697" y="-398" type="curve" smooth="yes"/>
      <point x="734" y="-359"/>
      <point x="751" y="-299"/>
      <point x="751" y="-258" type="curve" smooth="yes"/>
      <point x="751" y="-177"/>
      <point x="695" y="-111"/>
      <point x="573" y="-113" type="curve"/>
      <point x="598" y="28" type="line"/>
    </contour>
  </outline>
</glyph>
<glyph name="onesuperior" format="1">
  <advance width="1228"/>
  <unicode hex="00B9"/>
  <outline>
    <contour>
      <point x="472" y="1176" type="line" smooth="yes"/>
      <point x="435" y="1159"/>
      <point x="431" y="1131"/>
      <point x="446" y="1096" type="curve" smooth="yes"/>
      <point x="461" y="1060"/>
      <point x="483" y="1054"/>
      <point x="519" y="1071" type="curve" smooth="yes"/>
      <point x="769" y="1190" type="line"/>
      <point x="719" y="1246" type="line"/>
      <point x="606" y="608" type="line"/>
      <point x="401" y="608" type="line" smooth="yes"/>
      <point x="365" y="608"/>
      <point x="347" y="586"/>
      <point x="341" y="546" type="curve" smooth="yes"/>
      <point x="335" y="508"/>
      <point x="341" y="483"/>
      <point x="380" y="483" type="curve" smooth="yes"/>
      <point x="914" y="483" type="line" smooth="yes"/>
      <point x="950" y="483"/>
      <point x="968" y="505"/>
      <point x="974" y="545" type="curve" smooth="yes"/>
      <point x="980" y="583"/>
      <point x="974" y="608"/>
      <point x="935" y="608" type="curve" smooth="yes"/>
      <point x="741" y="608" type="line"/>
      <point x="862" y="1292" type="line" smooth="yes"/>
      <point x="869" y="1330"/>
      <point x="835" y="1344"/>
      <point x="800" y="1328" type="curve" smooth="yes"/>
    </contour>
  </outline>
</glyph>
<glyph name="ordmasculine" format="1">
  <advance width="1228"/>
  <unicode hex="00BA"/>
  <outline>
    <contour>
      <point x="477" y="1209"/>
      <point x="318" y="989"/>
      <point x="318" y="778" type="curve" smooth="yes"/>
      <point x="318" y="596"/>
      <point x="450" y="465"/>
      <point x="640" y="465" type="curve" smooth="yes"/>
      <point x="907" y="465"/>
      <point x="1064" y="688"/>
      <point x="1064" y="895" type="curve" smooth="yes"/>
      <point x="1064" y="1077"/>
      <point x="931" y="1209"/>
      <point x="742" y="1209" type="curve" smooth="yes"/>
    </contour>
    <contour>
      <point x="851" y="1077"/>
      <point x="924" y="1000"/>
      <point x="924" y="887" type="curve" smooth="yes"/>
      <point x="924" y="722"/>
      <point x="803" y="597"/>
      <point x="654" y="597" type="curve" smooth="yes"/>
      <point x="531" y="597"/>
      <point x="457" y="674"/>
      <point x="457" y="787" type="curve" smooth="yes"/>
      <point x="457" y="924"/>
      <point x="556" y="1077"/>
      <point x="728" y="1077" type="curve" smooth="yes"/>
    </contour>
  </outline>
</glyph>
<glyph name="onequarter" format="1">
  <advance width="1228"/>
  <unicode hex="00BC"/>
  <outline>
    <contour>
      <point x="149" y="1262" type="line" smooth="yes"/>
      <point x="118" y="1248"/>
      <point x="115" y="1224"/>
      <point x="127" y="1195" type="curve" smooth="yes"/>
      <point x="140" y="1165"/>
      <point x="158" y="1160"/>
      <point x="188" y="1174" type="curve" smooth="yes"/>
      <point x="397" y="1273" type="line"/>
      <point x="355" y="1320" type="line"/>
      <point x="261" y="788" type="line"/>
      <point x="90" y="788" type="line" smooth="yes"/>
      <point x="60" y="788"/>
      <point x="45" y="770"/>
      <point x="40" y="736" type="curve" smooth="yes"/>
      <point x="35" y="705"/>
      <point x="40" y="684"/>
      <point x="72" y="684" type="curve" smooth="yes"/>
      <point x="518" y="684" type="line" smooth="yes"/>
      <point x="548" y="684"/>
      <point x="563" y="702"/>
      <point x="568" y="736" type="curve" smooth="yes"/>
      <point x="573" y="767"/>
      <point x="568" y="788"/>
      <point x="536" y="788" type="curve" smooth="yes"/>
      <point x="374" y="788" type="line"/>
      <point x="475" y="1359" type="line" smooth="yes"/>
      <point x="481" y="1390"/>
      <point x="452" y="1402"/>
      <point x="423" y="1389" type="curve" smooth="yes"/>
    </contour>
    <contour>
      <point x="104" y="279" type="line" smooth="yes"/>
      <point x="83" y="267"/>
      <point x="78" y="240"/>
      <point x="93" y="214" type="curve" smooth="yes"/>
      <point x="107" y="188"/>
      <point x="130" y="180"/>
      <point x="149" y="190" type="curve" smooth="yes"/>
      <point x="1166" y="751" type="line" smooth="yes"/>
      <point x="1187" y="763"/>
      <point x="1191" y="790"/>
      <point x="1177" y="816" type="curve" smooth="yes"/>
      <point x="1163" y="842"/>
      <point x="1140" y="850"/>
      <point x="1121" y="840" type="curve" smooth="yes"/>
    </contour>
    <contour>
      <point x="1036" y="495"/>
      <point x="1016" y="482"/>
      <point x="992" y="459" type="curve" smooth="yes"/>
      <point x="609" y="81" type="line" smooth="yes"/>
      <point x="596" y="67"/>
      <point x="585" y="56"/>
      <point x="585" y="18" type="curve" smooth="yes"/>
      <point x="585" y="-14"/>
      <point x="599" y="-29"/>
      <point x="621" y="-29" type="curve" smooth="yes"/>
      <point x="935" y="-29" type="line"/>
      <point x="908" y="-182" type="line" smooth="yes"/>
      <point x="903" y="-208"/>
      <point x="917" y="-222"/>
      <point x="958" y="-222" type="curve" smooth="yes"/>
      <point x="1000" y="-222"/>
      <point x="1016" y="-208"/>
      <point x="1021" y="-182" type="curve" smooth="yes"/>
      <point x="1048" y="-29" type="line"/>
      <point x="1140" y="-29" type="line" smooth="yes"/>
      <point x="1170" y="-29"/>
      <point x="1185" y="-10"/>
      <point x="1190" y="23" type="curve" smooth="yes"/>
      <point x="1195" y="55"/>
      <point x="1190" y="76"/>
      <point x="1158" y="76" type="curve" smooth="yes"/>
      <point x="1066" y="76" type="line"/>
      <point x="1132" y="449" type="line" smooth="yes"/>
      <point x="1137" y="476"/>
      <point x="1103" y="495"/>
      <point x="1066" y="495" type="curve" smooth="yes"/>
    </contour>
    <contour>
      <point x="953" y="76" type="line"/>
      <point x="737" y="76" type="line"/>
      <point x="1006" y="342" type="line"/>
    </contour>
  </outline>
</glyph>
<glyph name="onehalf" format="1">
  <advance width="1228"/>
  <unicode hex="00BD"/>
  <outline>
    <contour>
      <point x="898" y="494"/>
      <point x="807" y="469"/>
      <point x="732" y="425" type="curve" smooth="yes"/>
      <point x="720" y="418"/>
      <point x="711" y="406"/>
      <point x="708" y="390" type="curve" smooth="yes"/>
      <point x="686" y="268" type="line" smooth="yes"/>
      <point x="681" y="240"/>
      <point x="694" y="225"/>
      <point x="735" y="225" type="curve" smooth="yes"/>
      <point x="777" y="225"/>
      <point x="794" y="240"/>
      <point x="799" y="268" type="curve" smooth="yes"/>
      <point x="814" y="353" type="line"/>
      <point x="856" y="373"/>
      <point x="907" y="386"/>
      <point x="954" y="386" type="curve" smooth="yes"/>
      <point x="1029" y="386"/>
      <point x="1066" y="351"/>
      <point x="1066" y="298" type="curve" smooth="yes"/>
      <point x="1066" y="234"/>
      <point x="1027" y="191"/>
      <point x="946" y="132" type="curve" smooth="yes"/>
      <point x="628" y="-102" type="line" smooth="yes"/>
      <point x="610" y="-115"/>
      <point x="596" y="-132"/>
      <point x="592" y="-156" type="curve" smooth="yes"/>
      <point x="585" y="-194"/>
      <point x="595" y="-216"/>
      <point x="621" y="-216" type="curve" smooth="yes"/>
      <point x="1098" y="-216" type="line" smooth="yes"/>
      <point x="1125" y="-216"/>
      <point x="1142" y="-201"/>
      <point x="1147" y="-172" type="curve" smooth="yes"/>
      <point x="1170" y="-47" type="line" smooth="yes"/>
      <point x="1175" y="-19"/>
      <point x="1162" y="-4"/>
      <point x="1121" y="-4" type="curve" smooth="yes"/>
      <point x="1080" y="-4"/>
      <point x="1062" y="-19"/>
      <point x="1057" y="-47" type="curve" smooth="yes"/>
      <point x="1045" y="-112" type="line"/>
      <point x="777" y="-112" type="line"/>
      <point x="1005" y="53" type="line" smooth="yes"/>
      <point x="1126" y="140"/>
      <point x="1186" y="208"/>
      <point x="1186" y="308" type="curve" smooth="yes"/>
      <point x="1186" y="423"/>
      <point x="1106" y="494"/>
      <point x="974" y="494" type="curve" smooth="yes"/>
    </contour>
    <contour>
      <point x="104" y="329" type="line" smooth="yes"/>
      <point x="83" y="317"/>
      <point x="78" y="290"/>
      <point x="93" y="264" type="curve" smooth="yes"/>
      <point x="107" y="238"/>
      <point x="130" y="230"/>
      <point x="149" y="240" type="curve" smooth="yes"/>
      <point x="1166" y="801" type="line" smooth="yes"/>
      <point x="1187" y="813"/>
      <point x="1191" y="840"/>
      <point x="1177" y="866" type="curve" smooth="yes"/>
      <point x="1163" y="892"/>
      <point x="1140" y="900"/>
      <point x="1121" y="890" type="curve" smooth="yes"/>
    </contour>
    <contour>
      <point x="149" y="1262" type="line" smooth="yes"/>
      <point x="118" y="1248"/>
      <point x="115" y="1224"/>
      <point x="127" y="1195" type="curve" smooth="yes"/>
      <point x="140" y="1165"/>
      <point x="158" y="1160"/>
      <point x="188" y="1174" type="curve" smooth="yes"/>
      <point x="397" y="1273" type="line"/>
      <point x="355" y="1320" type="line"/>
      <point x="261" y="788" type="line"/>
      <point x="90" y="788" type="line" smooth="yes"/>
      <point x="60" y="788"/>
      <point x="45" y="770"/>
      <point x="40" y="736" type="curve" smooth="yes"/>
      <point x="35" y="705"/>
      <point x="40" y="684"/>
      <point x="72" y="684" type="curve" smooth="yes"/>
      <point x="518" y="684" type="line" smooth="yes"/>
      <point x="548" y="684"/>
      <point x="563" y="702"/>
      <point x="568" y="736" type="curve" smooth="yes"/>
      <point x="573" y="767"/>
      <point x="568" y="788"/>
      <point x="536" y="788" type="curve" smooth="yes"/>
      <point x="374" y="788" type="line"/>
      <point x="475" y="1359" type="line" smooth="yes"/>
      <point x="481" y="1390"/>
      <point x="452" y="1402"/>
      <point x="423" y="1389" type="curve" smooth="yes"/>
    </contour>
  </outline>
</glyph>
<glyph name="threequarters" format="1">
  <advance width="1228"/>
  <unicode hex="00BE"/>
  <outline>
    <contour>
      <point x="352" y="1394"/>
      <point x="266" y="1375"/>
      <point x="193" y="1336" type="curve" smooth="yes"/>
      <point x="181" y="1329"/>
      <point x="172" y="1317"/>
      <point x="170" y="1301" type="curve" smooth="yes"/>
      <point x="153" y="1209" type="line" smooth="yes"/>
      <point x="148" y="1182"/>
      <point x="160" y="1167"/>
      <point x="201" y="1167" type="curve" smooth="yes"/>
      <point x="243" y="1167"/>
      <point x="261" y="1182"/>
      <point x="266" y="1209" type="curve" smooth="yes"/>
      <point x="275" y="1262" type="line"/>
      <point x="313" y="1277"/>
      <point x="355" y="1286"/>
      <point x="410" y="1286" type="curve" smooth="yes"/>
      <point x="479" y="1286"/>
      <point x="525" y="1258"/>
      <point x="525" y="1202" type="curve" smooth="yes"/>
      <point x="525" y="1133"/>
      <point x="481" y="1086"/>
      <point x="363" y="1086" type="curve" smooth="yes"/>
      <point x="331" y="1086" type="line" smooth="yes"/>
      <point x="302" y="1086"/>
      <point x="290" y="1066"/>
      <point x="285" y="1036" type="curve" smooth="yes"/>
      <point x="280" y="1005"/>
      <point x="285" y="982"/>
      <point x="312" y="982" type="curve" smooth="yes"/>
      <point x="356" y="982" type="line" smooth="yes"/>
      <point x="438" y="982"/>
      <point x="494" y="962"/>
      <point x="494" y="899" type="curve" smooth="yes"/>
      <point x="494" y="821"/>
      <point x="427" y="776"/>
      <point x="317" y="776" type="curve" smooth="yes"/>
      <point x="262" y="776"/>
      <point x="194" y="793"/>
      <point x="135" y="821" type="curve" smooth="yes"/>
      <point x="111" y="832"/>
      <point x="94" y="821"/>
      <point x="76" y="789" type="curve" smooth="yes"/>
      <point x="59" y="756"/>
      <point x="63" y="736"/>
      <point x="81" y="725" type="curve" smooth="yes"/>
      <point x="145" y="689"/>
      <point x="227" y="669"/>
      <point x="312" y="669" type="curve" smooth="yes"/>
      <point x="509" y="669"/>
      <point x="612" y="768"/>
      <point x="612" y="907" type="curve" smooth="yes"/>
      <point x="612" y="972"/>
      <point x="579" y="1018"/>
      <point x="521" y="1042" type="curve"/>
      <point x="599" y="1078"/>
      <point x="645" y="1140"/>
      <point x="645" y="1216" type="curve" smooth="yes"/>
      <point x="645" y="1324"/>
      <point x="565" y="1394"/>
      <point x="426" y="1394" type="curve" smooth="yes"/>
    </contour>
    <contour>
      <point x="1036" y="495"/>
      <point x="1016" y="482"/>
      <point x="992" y="459" type="curve" smooth="yes"/>
      <point x="609" y="81" type="line" smooth="yes"/>
      <point x="596" y="67"/>
      <point x="585" y="56"/>
      <point x="585" y="18" type="curve" smooth="yes"/>
      <point x="585" y="-14"/>
      <point x="599" y="-29"/>
      <point x="621" y="-29" type="curve" smooth="yes"/>
      <point x="935" y="-29" type="line"/>
      <point x="908" y="-182" type="line" smooth="yes"/>
      <point x="903" y="-208"/>
      <point x="917" y="-222"/>
      <point x="958" y="-222" type="curve" smooth="yes"/>
      <point x="1000" y="-222"/>
      <point x="1016" y="-208"/>
      <point x="1021" y="-182" type="curve" smooth="yes"/>
      <point x="1048" y="-29" type="line"/>
      <point x="1140" y="-29" type="line" smooth="yes"/>
      <point x="1170" y="-29"/>
      <point x="1185" y="-10"/>
      <point x="1190" y="23" type="curve" smooth="yes"/>
      <point x="1195" y="55"/>
      <point x="1190" y="76"/>
      <point x="1158" y="76" type="curve" smooth="yes"/>
      <point x="1066" y="76" type="line"/>
      <point x="1132" y="449" type="line" smooth="yes"/>
      <point x="1137" y="476"/>
      <point x="1103" y="495"/>
      <point x="1066" y="495" type="curve" smooth="yes"/>
    </contour>
    <contour>
      <point x="953" y="76" type="line"/>
      <point x="737" y="76" type="line"/>
      <point x="1006" y="342" type="line"/>
    </contour>
    <contour>
      <point x="104" y="289" type="line" smooth="yes"/>
      <point x="83" y="277"/>
      <point x="78" y="250"/>
      <point x="93" y="224" type="curve" smooth="yes"/>
      <point x="107" y="198"/>
      <point x="130" y="190"/>
      <point x="149" y="200" type="curve" smooth="yes"/>
      <point x="1166" y="761" type="line" smooth="yes"/>
      <point x="1187" y="773"/>
      <point x="1191" y="800"/>
      <point x="1177" y="826" type="curve" smooth="yes"/>
      <point x="1163" y="852"/>
      <point x="1140" y="860"/>
      <point x="1121" y="850" type="curve" smooth="yes"/>
    </contour>
  </outline>
</glyph>
<glyph name="multiply" format="1">
  <advance width="1228"/>
  <unicode hex="00D7"/>
  <outline>
    <contour>
      <point x="1013" y="966"/>
      <point x="984" y="969"/>
      <point x="950" y="940" type="curve" smooth="yes"/>
      <point x="243" y="328" type="line" smooth="yes"/>
      <point x="209" y="299"/>
      <point x="211" y="271"/>
      <point x="244" y="235" type="curve" smooth="yes"/>
      <point x="278" y="198"/>
      <point x="307" y="195"/>
      <point x="341" y="224" type="curve" smooth="yes"/>
      <point x="1048" y="836" type="line" smooth="yes"/>
      <point x="1082" y="865"/>
      <point x="1080" y="893"/>
      <point x="1047" y="929" type="curve" smooth="yes"/>
    </contour>
    <contour>
      <point x="306" y="909"/>
      <point x="299" y="883"/>
      <point x="328" y="849" type="curve" smooth="yes"/>
      <point x="850" y="227" type="line" smooth="yes"/>
      <point x="879" y="193"/>
      <point x="910" y="191"/>
      <point x="948" y="223" type="curve" smooth="yes"/>
      <point x="986" y="255"/>
      <point x="993" y="281"/>
      <point x="964" y="315" type="curve" smooth="yes"/>
      <point x="442" y="937" type="line" smooth="yes"/>
      <point x="413" y="971"/>
      <point x="382" y="973"/>
      <point x="344" y="941" type="curve" smooth="yes"/>
    </contour>
  </outline>
</glyph>
<glyph name="Oslash" format="1">
  <advance width="1228"/>
  <unicode hex="00D8"/>
  <outline>
    <contour>
      <point x="1169" y="1260"/>
      <point x="1132" y="1257"/>
      <point x="1099" y="1219" type="curve" smooth="yes"/>
      <point x="1016" y="1123" type="line"/>
      <point x="944" y="1178"/>
      <point x="851" y="1209"/>
      <point x="742" y="1209" type="curve" smooth="yes"/>
      <point x="534" y="1209"/>
      <point x="374" y="1108"/>
      <point x="268" y="961" type="curve" smooth="yes"/>
      <point x="165" y="818"/>
      <point x="112" y="636"/>
      <point x="112" y="459" type="curve" smooth="yes"/>
      <point x="112" y="346"/>
      <point x="138" y="247"/>
      <point x="186" y="170" type="curve"/>
      <point x="82" y="50" type="line" smooth="yes"/>
      <point x="49" y="12"/>
      <point x="58" y="-15"/>
      <point x="94" y="-43" type="curve" smooth="yes"/>
      <point x="129" y="-71"/>
      <point x="164" y="-68"/>
      <point x="197" y="-30" type="curve" smooth="yes"/>
      <point x="280" y="65" type="line"/>
      <point x="352" y="9"/>
      <point x="445" y="-22"/>
      <point x="555" y="-22" type="curve" smooth="yes"/>
      <point x="763" y="-22"/>
      <point x="923" y="79"/>
      <point x="1029" y="226" type="curve" smooth="yes"/>
      <point x="1132" y="369"/>
      <point x="1185" y="551"/>
      <point x="1185" y="728" type="curve" smooth="yes"/>
      <point x="1185" y="842"/>
      <point x="1158" y="941"/>
      <point x="1110" y="1019" type="curve"/>
      <point x="1214" y="1139" type="line" smooth="yes"/>
      <point x="1247" y="1177"/>
      <point x="1239" y="1204"/>
      <point x="1204" y="1232" type="curve" smooth="yes"/>
    </contour>
    <contour>
      <point x="1018" y="843"/>
      <point x="1028" y="786"/>
      <point x="1028" y="722" type="curve" smooth="yes"/>
      <point x="1028" y="580"/>
      <point x="985" y="426"/>
      <point x="901" y="309" type="curve" smooth="yes"/>
      <point x="824" y="201"/>
      <point x="711" y="126"/>
      <point x="566" y="126" type="curve" smooth="yes"/>
      <point x="492" y="126"/>
      <point x="430" y="146"/>
      <point x="382" y="183" type="curve"/>
      <point x="998" y="891" type="line"/>
    </contour>
    <contour>
      <point x="804" y="1061"/>
      <point x="865" y="1041"/>
      <point x="913" y="1005" type="curve"/>
      <point x="298" y="298" type="line"/>
      <point x="279" y="346"/>
      <point x="269" y="401"/>
      <point x="269" y="465" type="curve"/>
      <point x="269" y="607"/>
      <point x="312" y="761"/>
      <point x="396" y="878" type="curve" smooth="yes"/>
      <point x="473" y="986"/>
      <point x="586" y="1061"/>
      <point x="731" y="1061" type="curve" smooth="yes"/>
    </contour>
  </outline>
</glyph>
<glyph name="germandbls" format="1">
  <advance width="1228"/>
  <unicode hex="00DF"/>
  <outline>
    <contour>
      <point x="520" y="1317"/>
      <point x="369" y="1162"/>
      <point x="331" y="943" type="curve" smooth="yes"/>
      <point x="174" y="55" type="line" smooth="yes"/>
      <point x="166" y="9"/>
      <point x="181" y="-10"/>
      <point x="237" y="-10" type="curve" smooth="yes"/>
      <point x="239" y="-10" type="line" smooth="yes"/>
      <point x="292" y="-10"/>
      <point x="316" y="9"/>
      <point x="324" y="55" type="curve" smooth="yes"/>
      <point x="479" y="932" type="line" smooth="yes"/>
      <point x="505" y="1078"/>
      <point x="600" y="1172"/>
      <point x="738" y="1172" type="curve" smooth="yes"/>
      <point x="867" y="1172"/>
      <point x="933" y="1112"/>
      <point x="933" y="1014" type="curve" smooth="yes"/>
      <point x="933" y="905"/>
      <point x="865" y="776"/>
      <point x="690" y="759" type="curve" smooth="yes"/>
      <point x="645" y="755"/>
      <point x="623" y="736"/>
      <point x="615" y="688" type="curve" smooth="yes"/>
      <point x="606" y="640"/>
      <point x="621" y="619"/>
      <point x="666" y="619" type="curve" smooth="yes"/>
      <point x="801" y="619"/>
      <point x="882" y="549"/>
      <point x="882" y="422" type="curve" smooth="yes"/>
      <point x="882" y="288"/>
      <point x="804" y="126"/>
      <point x="567" y="126" type="curve" smooth="yes"/>
      <point x="521" y="126"/>
      <point x="497" y="105"/>
      <point x="493" y="55" type="curve" smooth="yes"/>
      <point x="488" y="-4"/>
      <point x="502" y="-22"/>
      <point x="570" y="-22" type="curve" smooth="yes"/>
      <point x="930" y="-22"/>
      <point x="1038" y="248"/>
      <point x="1038" y="418" type="curve" smooth="yes"/>
      <point x="1038" y="547"/>
      <point x="974" y="645"/>
      <point x="862" y="695" type="curve"/>
      <point x="1008" y="765"/>
      <point x="1089" y="880"/>
      <point x="1089" y="1029" type="curve" smooth="yes"/>
      <point x="1089" y="1192"/>
      <point x="975" y="1317"/>
      <point x="753" y="1317" type="curve" smooth="yes"/>
    </contour>
  </outline>
</glyph>
<glyph name="divide" format="1">
  <advance width="1228"/>
  <unicode hex="00F7"/>
  <outline>
    <contour>
      <point x="540" y="340"/>
      <point x="506" y="322"/>
      <point x="498" y="277" type="curve" smooth="yes"/>
      <point x="480" y="173" type="line" smooth="yes"/>
      <point x="472" y="128"/>
      <point x="499" y="110"/>
      <point x="573" y="110" type="curve" smooth="yes"/>
      <point x="647" y="110"/>
      <point x="682" y="128"/>
      <point x="690" y="173" type="curve" smooth="yes"/>
      <point x="708" y="277" type="line" smooth="yes"/>
      <point x="716" y="322"/>
      <point x="688" y="340"/>
      <point x="614" y="340" type="curve" smooth="yes"/>
    </contour>
    <contour>
      <point x="646" y="1055"/>
      <point x="612" y="1037"/>
      <point x="604" y="992" type="curve" smooth="yes"/>
      <point x="586" y="888" type="line" smooth="yes"/>
      <point x="578" y="843"/>
      <point x="605" y="825"/>
      <point x="679" y="825" type="curve" smooth="yes"/>
      <point x="753" y="825"/>
      <point x="788" y="843"/>
      <point x="796" y="888" type="curve" smooth="yes"/>
      <point x="814" y="992" type="line" smooth="yes"/>
      <point x="822" y="1037"/>
      <point x="794" y="1055"/>
      <point x="720" y="1055" type="curve" smooth="yes"/>
    </contour>
    <component base="minus"/>
  </outline>
</glyph>
<glyph name="thorn" format="1">
  <advance width="1228"/>
  <unicode hex="00FE"/>
  <outline>
    <contour>
      <point x="281" y="1312" type="line" smooth="yes"/>
      <point x="236" y="1312"/>
      <point x="215" y="1294"/>
      <point x="206" y="1244" type="curve" smooth="yes"/>
      <point x="198" y="1194"/>
      <point x="212" y="1176"/>
      <point x="257" y="1176" type="curve" smooth="yes"/>
      <point x="339" y="1176" type="line"/>
      <point x="86" y="-252" type="line"/>
      <point x="-15" y="-252" type="line" smooth="yes"/>
      <point x="-60" y="-252"/>
      <point x="-81" y="-270"/>
      <point x="-89" y="-320" type="curve" smooth="yes"/>
      <point x="-98" y="-370"/>
      <point x="-84" y="-388"/>
      <point x="-39" y="-388" type="curve" smooth="yes"/>
      <point x="385" y="-388" type="line" smooth="yes"/>
      <point x="430" y="-388"/>
      <point x="451" y="-370"/>
      <point x="460" y="-320" type="curve" smooth="yes"/>
      <point x="469" y="-270"/>
      <point x="454" y="-252"/>
      <point x="409" y="-252" type="curve" smooth="yes"/>
      <point x="236" y="-252" type="line"/>
      <point x="306" y="146" type="line"/>
      <point x="368" y="46"/>
      <point x="470" y="-22"/>
      <point x="604" y="-22" type="curve" smooth="yes"/>
      <point x="957" y="-22"/>
      <point x="1118" y="299"/>
      <point x="1118" y="558" type="curve" smooth="yes"/>
      <point x="1118" y="797"/>
      <point x="969" y="946"/>
      <point x="754" y="946" type="curve" smooth="yes"/>
      <point x="627" y="946"/>
      <point x="517" y="890"/>
      <point x="421" y="790" type="curve"/>
      <point x="501" y="1244" type="line" smooth="yes"/>
      <point x="510" y="1294"/>
      <point x="495" y="1312"/>
      <point x="450" y="1312" type="curve" smooth="yes"/>
    </contour>
    <contour>
      <point x="881" y="798"/>
      <point x="961" y="698"/>
      <point x="961" y="549" type="curve" smooth="yes"/>
      <point x="961" y="343"/>
      <point x="835" y="126"/>
      <point x="610" y="126" type="curve" smooth="yes"/>
      <point x="456" y="126"/>
      <point x="355" y="219"/>
      <point x="355" y="383" type="curve" smooth="yes"/>
      <point x="355" y="589"/>
      <point x="491" y="798"/>
      <point x="728" y="798" type="curve" smooth="yes"/>
    </contour>
  </outline>
</glyph>
<glyph name="Aogonek" format="1">
  <advance width="1228"/>
  <unicode hex="0104"/>
  <outline>
    <contour>
      <point x="412" y="1187" type="line" smooth="yes"/>
      <point x="367" y="1187"/>
      <point x="346" y="1169"/>
      <point x="337" y="1119" type="curve" smooth="yes"/>
      <point x="328" y="1069"/>
      <point x="343" y="1051"/>
      <point x="388" y="1051" type="curve" smooth="yes"/>
      <point x="572" y="1051" type="line"/>
      <point x="79" y="136" type="line"/>
      <point x="26" y="136" type="line" smooth="yes"/>
      <point x="-19" y="136"/>
      <point x="-40" y="118"/>
      <point x="-49" y="68" type="curve" smooth="yes"/>
      <point x="-57" y="18"/>
      <point x="-42" y="0"/>
      <point x="3" y="0" type="curve" smooth="yes"/>
      <point x="337" y="0" type="line" smooth="yes"/>
      <point x="382" y="0"/>
      <point x="403" y="18"/>
      <point x="411" y="68" type="curve" smooth="yes"/>
      <point x="420" y="118"/>
      <point x="405" y="136"/>
      <point x="360" y="136" type="curve" smooth="yes"/>
      <point x="244" y="136" type="line"/>
      <point x="369" y="374" type="line"/>
      <point x="854" y="374" type="line"/>
      <point x="894" y="136" type="line"/>
      <point x="754" y="136" type="line" smooth="yes"/>
      <point x="709" y="136"/>
      <point x="688" y="118"/>
      <point x="679" y="68" type="curve" smooth="yes"/>
      <point x="671" y="18"/>
      <point x="686" y="0"/>
      <point x="731" y="0" type="curve" smooth="yes"/>
      <point x="863" y="0" type="line"/>
      <point x="733" y="-101"/>
      <point x="659" y="-200"/>
      <point x="659" y="-310" type="curve" smooth="yes"/>
      <point x="659" y="-406"/>
      <point x="720" y="-472"/>
      <point x="827" y="-472" type="curve" smooth="yes"/>
      <point x="891" y="-472"/>
      <point x="957" y="-460"/>
      <point x="1006" y="-443" type="curve" smooth="yes"/>
      <point x="1037" y="-432"/>
      <point x="1047" y="-411"/>
      <point x="1042" y="-374" type="curve" smooth="yes"/>
      <point x="1037" y="-337"/>
      <point x="1022" y="-322"/>
      <point x="995" y="-326" type="curve" smooth="yes"/>
      <point x="959" y="-332"/>
      <point x="923" y="-336"/>
      <point x="884" y="-336" type="curve" smooth="yes"/>
      <point x="844" y="-336"/>
      <point x="819" y="-316"/>
      <point x="819" y="-277" type="curve" smooth="yes"/>
      <point x="819" y="-205"/>
      <point x="887" y="-117"/>
      <point x="1035" y="0" type="curve"/>
      <point x="1085" y="0" type="line" smooth="yes"/>
      <point x="1130" y="0"/>
      <point x="1151" y="18"/>
      <point x="1159" y="68" type="curve" smooth="yes"/>
      <point x="1168" y="118"/>
      <point x="1153" y="136"/>
      <point x="1108" y="136" type="curve" smooth="yes"/>
      <point x="1044" y="136" type="line"/>
      <point x="865" y="1122" type="line" smooth="yes"/>
      <point x="857" y="1168"/>
      <point x="829" y="1187"/>
      <point x="776" y="1187" type="curve" smooth="yes"/>
    </contour>
    <contour>
      <point x="832" y="510" type="line"/>
      <point x="440" y="510" type="line"/>
      <point x="723" y="1051" type="line"/>
      <point x="742" y="1051" type="line"/>
    </contour>
  </outline>
</glyph>
<glyph name="dcaron" format="1">
  <advance width="1228"/>
  <unicode hex="010F"/>
  <outline>
    <contour>
      <point x="767" y="1312" type="line" smooth="yes"/>
      <point x="722" y="1312"/>
      <point x="701" y="1294"/>
      <point x="692" y="1244" type="curve" smooth="yes"/>
      <point x="683" y="1194"/>
      <point x="698" y="1176"/>
      <point x="743" y="1176" type="curve" smooth="yes"/>
      <point x="905" y="1176" type="line"/>
      <point x="838" y="790" type="line"/>
      <point x="793" y="883"/>
      <point x="708" y="946"/>
      <point x="577" y="946" type="curve" smooth="yes"/>
      <point x="276" y="946"/>
      <point x="123" y="637"/>
      <point x="123" y="363" type="curve" smooth="yes"/>
      <point x="123" y="128"/>
      <point x="250" y="-22"/>
      <point x="437" y="-22" type="curve" smooth="yes"/>
      <point x="567" y="-22"/>
      <point x="659" y="46"/>
      <point x="731" y="133" type="curve"/>
      <point x="719" y="68" type="line" smooth="yes"/>
      <point x="710" y="18"/>
      <point x="726" y="0"/>
      <point x="771" y="0" type="curve" smooth="yes"/>
      <point x="930" y="0" type="line" smooth="yes"/>
      <point x="975" y="0"/>
      <point x="996" y="18"/>
      <point x="1004" y="68" type="curve" smooth="yes"/>
      <point x="1013" y="118"/>
      <point x="998" y="136"/>
      <point x="953" y="136" type="curve" smooth="yes"/>
      <point x="871" y="136" type="line"/>
      <point x="1067" y="1244" type="line" smooth="yes"/>
      <point x="1076" y="1294"/>
      <point x="1061" y="1312"/>
      <point x="1016" y="1312" type="curve" smooth="yes"/>
    </contour>
    <contour>
      <point x="711" y="798"/>
      <point x="789" y="708"/>
      <point x="789" y="551" type="curve" smooth="yes"/>
      <point x="789" y="369"/>
      <point x="690" y="126"/>
      <point x="473" y="126" type="curve" smooth="yes"/>
      <point x="338" y="126"/>
      <point x="279" y="224"/>
      <point x="279" y="369" type="curve" smooth="yes"/>
      <point x="279" y="559"/>
      <point x="375" y="798"/>
      <point x="581" y="798" type="curve" smooth="yes"/>
    </contour>
    <component base="caron.alt" xOffset="799"/>
  </outline>
</glyph>
<glyph name="dotlessi" format="1">
  <advance width="1228"/>
  <unicode hex="0131"/>
  <outline>
    <contour>
      <point x="322" y="924" type="line" smooth="yes"/>
      <point x="277" y="924"/>
      <point x="256" y="906"/>
      <point x="247" y="856" type="curve" smooth="yes"/>
      <point x="239" y="806"/>
      <point x="253" y="788"/>
      <point x="298" y="788" type="curve" smooth="yes"/>
      <point x="551" y="788" type="line"/>
      <point x="467" y="307" type="line" smooth="yes"/>
      <point x="462" y="280"/>
      <point x="460" y="254"/>
      <point x="460" y="229" type="curve" smooth="yes"/>
      <point x="460" y="73"/>
      <point x="556" y="-22"/>
      <point x="729" y="-22" type="curve" smooth="yes"/>
      <point x="826" y="-22"/>
      <point x="927" y="7"/>
      <point x="1029" y="65" type="curve" smooth="yes"/>
      <point x="1066" y="86"/>
      <point x="1077" y="113"/>
      <point x="1059" y="161" type="curve" smooth="yes"/>
      <point x="1041" y="208"/>
      <point x="1009" y="220"/>
      <point x="976" y="200" type="curve" smooth="yes"/>
      <point x="894" y="149"/>
      <point x="821" y="124"/>
      <point x="744" y="124" type="curve" smooth="yes"/>
      <point x="651" y="124"/>
      <point x="610" y="160"/>
      <point x="610" y="244" type="curve" smooth="yes"/>
      <point x="610" y="263"/>
      <point x="613" y="286"/>
      <point x="617" y="310" type="curve" smooth="yes"/>
      <point x="713" y="856" type="line" smooth="yes"/>
      <point x="722" y="906"/>
      <point x="707" y="924"/>
      <point x="662" y="924" type="curve" smooth="yes"/>
    </contour>
  </outline>
</glyph>
<glyph name="IJ" format="1">
  <advance width="1228"/>
  <unicode hex="0132"/>
  <outline>
    <contour>
      <point x="922" y="1187" type="line" smooth="yes"/>
      <point x="877" y="1187"/>
      <point x="856" y="1169"/>
      <point x="847" y="1119" type="curve" smooth="yes"/>
      <point x="838" y="1069"/>
      <point x="853" y="1051"/>
      <point x="898" y="1051" type="curve" smooth="yes"/>
      <point x="1039" y="1051" type="line"/>
      <point x="900" y="263" type="line" smooth="yes"/>
      <point x="883" y="167"/>
      <point x="840" y="126"/>
      <point x="757" y="126" type="curve" smooth="yes"/>
      <point x="719" y="126"/>
      <point x="685" y="136"/>
      <point x="663" y="161" type="curve"/>
      <point x="708" y="415" type="line" smooth="yes"/>
      <point x="716" y="461"/>
      <point x="700" y="480"/>
      <point x="644" y="480" type="curve" smooth="yes"/>
      <point x="588" y="480"/>
      <point x="566" y="461"/>
      <point x="558" y="415" type="curve" smooth="yes"/>
      <point x="507" y="130" type="line" smooth="yes"/>
      <point x="503" y="107"/>
      <point x="505" y="90"/>
      <point x="514" y="79" type="curve" smooth="yes"/>
      <point x="562" y="19"/>
      <point x="649" y="-22"/>
      <point x="740" y="-22" type="curve" smooth="yes"/>
      <point x="929" y="-22"/>
      <point x="1017" y="74"/>
      <point x="1045" y="233" type="curve" smooth="yes"/>
      <point x="1189" y="1051" type="line"/>
      <point x="1260" y="1051" type="line" smooth="yes"/>
      <point x="1305" y="1051"/>
      <point x="1326" y="1069"/>
      <point x="1335" y="1119" type="curve" smooth="yes"/>
      <point x="1344" y="1169"/>
      <point x="1329" y="1187"/>
      <point x="1284" y="1187" type="curve" smooth="yes"/>
    </contour>
    <contour>
      <point x="232" y="1187" type="line" smooth="yes"/>
      <point x="187" y="1187"/>
      <point x="166" y="1169"/>
      <point x="157" y="1119" type="curve" smooth="yes"/>
      <point x="148" y="1069"/>
      <point x="163" y="1051"/>
      <point x="208" y="1051" type="curve" smooth="yes"/>
      <point x="294" y="1051" type="line"/>
      <point x="132" y="136" type="line"/>
      <point x="46" y="136" type="line" smooth="yes"/>
      <point x="1" y="136"/>
      <point x="-20" y="118"/>
      <point x="-29" y="68" type="curve" smooth="yes"/>
      <point x="-37" y="18"/>
      <point x="-22" y="0"/>
      <point x="23" y="0" type="curve" smooth="yes"/>
      <point x="355" y="0" type="line" smooth="yes"/>
      <point x="400" y="0"/>
      <point x="421" y="18"/>
      <point x="429" y="68" type="curve" smooth="yes"/>
      <point x="438" y="118"/>
      <point x="423" y="136"/>
      <point x="378" y="136" type="curve" smooth="yes"/>
      <point x="282" y="136" type="line"/>
      <point x="444" y="1051" type="line"/>
      <point x="520" y="1051" type="line" smooth="yes"/>
      <point x="565" y="1051"/>
      <point x="586" y="1069"/>
      <point x="595" y="1119" type="curve" smooth="yes"/>
      <point x="604" y="1169"/>
      <point x="589" y="1187"/>
      <point x="544" y="1187" type="curve" smooth="yes"/>
    </contour>
  </outline>
</glyph>
<glyph name="eng" format="1">
  <advance width="1228"/>
  <unicode hex="014B"/>
  <outline>
    <contour>
      <point x="686" y="946"/>
      <point x="557" y="872"/>
      <point x="445" y="736" type="curve"/>
      <point x="466" y="856" type="line" smooth="yes"/>
      <point x="475" y="906"/>
      <point x="460" y="924"/>
      <point x="415" y="924" type="curve" smooth="yes"/>
      <point x="236" y="924" type="line" smooth="yes"/>
      <point x="191" y="924"/>
      <point x="170" y="906"/>
      <point x="161" y="856" type="curve" smooth="yes"/>
      <point x="153" y="806"/>
      <point x="167" y="788"/>
      <point x="212" y="788" type="curve" smooth="yes"/>
      <point x="314" y="788" type="line"/>
      <point x="185" y="55" type="line" smooth="yes"/>
      <point x="177" y="9"/>
      <point x="192" y="-10"/>
      <point x="248" y="-10" type="curve" smooth="yes"/>
      <point x="250" y="-10" type="line" smooth="yes"/>
      <point x="303" y="-10"/>
      <point x="327" y="9"/>
      <point x="335" y="55" type="curve" smooth="yes"/>
      <point x="396" y="402" type="line" smooth="yes"/>
      <point x="434" y="620"/>
      <point x="615" y="798"/>
      <point x="786" y="798" type="curve" smooth="yes"/>
      <point x="877" y="798"/>
      <point x="919" y="744"/>
      <point x="919" y="659" type="curve" smooth="yes"/>
      <point x="919" y="642"/>
      <point x="917" y="624"/>
      <point x="914" y="605" type="curve" smooth="yes"/>
      <point x="788" y="-107" type="line" smooth="yes"/>
      <point x="768" y="-220"/>
      <point x="714" y="-264"/>
      <point x="632" y="-264" type="curve" smooth="yes"/>
      <point x="572" y="-264"/>
      <point x="511" y="-246"/>
      <point x="462" y="-224" type="curve" smooth="yes"/>
      <point x="435" y="-212"/>
      <point x="401" y="-219"/>
      <point x="379" y="-266" type="curve" smooth="yes"/>
      <point x="355" y="-317"/>
      <point x="364" y="-343"/>
      <point x="399" y="-360" type="curve" smooth="yes"/>
      <point x="462" y="-390"/>
      <point x="541" y="-410"/>
      <point x="621" y="-410" type="curve" smooth="yes"/>
      <point x="797" y="-410"/>
      <point x="901" y="-314"/>
      <point x="933" y="-135" type="curve" smooth="yes"/>
      <point x="1065" y="610" type="line" smooth="yes"/>
      <point x="1070" y="637"/>
      <point x="1072" y="662"/>
      <point x="1072" y="686" type="curve" smooth="yes"/>
      <point x="1072" y="844"/>
      <point x="977" y="946"/>
      <point x="817" y="946" type="curve" smooth="yes"/>
    </contour>
  </outline>
</glyph>
<glyph name="florin" format="1">
  <advance width="1228"/>
  <unicode hex="0192"/>
  <outline>
    <contour>
      <point x="853" y="1317"/>
      <point x="731" y="1212"/>
      <point x="674" y="1007" type="curve" smooth="yes"/>
      <point x="410" y="54" type="line" smooth="yes"/>
      <point x="375" y="-74"/>
      <point x="306" y="-133"/>
      <point x="206" y="-133" type="curve" smooth="yes"/>
      <point x="143" y="-133"/>
      <point x="89" y="-124"/>
      <point x="29" y="-104" type="curve" smooth="yes"/>
      <point x="-4" y="-93"/>
      <point x="-32" y="-104"/>
      <point x="-50" y="-160" type="curve" smooth="yes"/>
      <point x="-67" y="-214"/>
      <point x="-52" y="-237"/>
      <point x="-20" y="-248" type="curve" smooth="yes"/>
      <point x="42" y="-269"/>
      <point x="115" y="-279"/>
      <point x="185" y="-279" type="curve" smooth="yes"/>
      <point x="374" y="-279"/>
      <point x="496" y="-174"/>
      <point x="553" y="31" type="curve" smooth="yes"/>
      <point x="817" y="984" type="line" smooth="yes"/>
      <point x="852" y="1112"/>
      <point x="921" y="1171"/>
      <point x="1021" y="1171" type="curve" smooth="yes"/>
      <point x="1084" y="1171"/>
      <point x="1138" y="1162"/>
      <point x="1198" y="1142" type="curve" smooth="yes"/>
      <point x="1231" y="1131"/>
      <point x="1258" y="1143"/>
      <point x="1277" y="1198" type="curve" smooth="yes"/>
      <point x="1296" y="1253"/>
      <point x="1280" y="1275"/>
      <point x="1247" y="1286" type="curve" smooth="yes"/>
      <point x="1185" y="1307"/>
      <point x="1112" y="1317"/>
      <point x="1042" y="1317" type="curve" smooth="yes"/>
    </contour>
    <contour>
      <point x="418" y="844" type="line" smooth="yes"/>
      <point x="373" y="844"/>
      <point x="352" y="826"/>
      <point x="343" y="776" type="curve" smooth="yes"/>
      <point x="335" y="726"/>
      <point x="349" y="708"/>
      <point x="394" y="708" type="curve" smooth="yes"/>
      <point x="988" y="708" type="line" smooth="yes"/>
      <point x="1033" y="708"/>
      <point x="1055" y="726"/>
      <point x="1063" y="776" type="curve" smooth="yes"/>
      <point x="1072" y="826"/>
      <point x="1057" y="844"/>
      <point x="1012" y="844" type="curve" smooth="yes"/>
    </contour>
  </outline>
</glyph>
<glyph name="dotlessj" format="1">
  <advance width="1228"/>
  <unicode hex="0237"/>
  <outline>
    <contour>
      <point x="422" y="924" type="line" smooth="yes"/>
      <point x="377" y="924"/>
      <point x="356" y="906"/>
      <point x="347" y="856" type="curve" smooth="yes"/>
      <point x="339" y="806"/>
      <point x="353" y="788"/>
      <point x="398" y="788" type="curve" smooth="yes"/>
      <point x="821" y="788" type="line"/>
      <point x="675" y="-44" type="line" smooth="yes"/>
      <point x="649" y="-191"/>
      <point x="593" y="-264"/>
      <point x="459" y="-264" type="curve" smooth="yes"/>
      <point x="366" y="-264"/>
      <point x="269" y="-223"/>
      <point x="191" y="-167" type="curve" smooth="yes"/>
      <point x="164" y="-147"/>
      <point x="130" y="-148"/>
      <point x="100" y="-199" type="curve" smooth="yes"/>
      <point x="70" y="-250"/>
      <point x="82" y="-276"/>
      <point x="111" y="-297" type="curve" smooth="yes"/>
      <point x="200" y="-360"/>
      <point x="328" y="-410"/>
      <point x="443" y="-410" type="curve" smooth="yes"/>
      <point x="675" y="-410"/>
      <point x="783" y="-286"/>
      <point x="823" y="-57" type="curve" smooth="yes"/>
      <point x="983" y="856" type="line" smooth="yes"/>
      <point x="992" y="906"/>
      <point x="977" y="924"/>
      <point x="932" y="924" type="curve" smooth="yes"/>
    </contour>
  </outline>
</glyph>
<glyph name="ogonek" format="1">
  <advance width="1228"/>
  <unicode hex="02DB"/>
  <outline>
    <contour>
      <point x="531" y="28" type="line"/>
      <point x="378" y="-83"/>
      <point x="289" y="-190"/>
      <point x="289" y="-310" type="curve" smooth="yes"/>
      <point x="289" y="-406"/>
      <point x="350" y="-472"/>
      <point x="457" y="-472" type="curve" smooth="yes"/>
      <point x="521" y="-472"/>
      <point x="587" y="-460"/>
      <point x="636" y="-443" type="curve" smooth="yes"/>
      <point x="667" y="-432"/>
      <point x="677" y="-411"/>
      <point x="672" y="-374" type="curve" smooth="yes"/>
      <point x="667" y="-337"/>
      <point x="652" y="-322"/>
      <point x="625" y="-326" type="curve" smooth="yes"/>
      <point x="589" y="-332"/>
      <point x="553" y="-336"/>
      <point x="514" y="-336" type="curve" smooth="yes"/>
      <point x="474" y="-336"/>
      <point x="449" y="-316"/>
      <point x="449" y="-277" type="curve" smooth="yes"/>
      <point x="449" y="-200"/>
      <point x="528" y="-104"/>
      <point x="701" y="28" type="curve"/>
    </contour>
  </outline>
</glyph>
<glyph name="tilde" format="1">
  <advance width="1228"/>
  <unicode hex="02DC"/>
  <outline>
    <contour>
      <point x="566" y="1297"/>
      <point x="502" y="1272"/>
      <point x="423" y="1206" type="curve" smooth="yes"/>
      <point x="402" y="1189"/>
      <point x="400" y="1161"/>
      <point x="417" y="1132" type="curve" smooth="yes"/>
      <point x="434" y="1103"/>
      <point x="457" y="1094"/>
      <point x="479" y="1107" type="curve" smooth="yes"/>
      <point x="526" y="1135"/>
      <point x="574" y="1149"/>
      <point x="614" y="1149" type="curve" smooth="yes"/>
      <point x="704" y="1149"/>
      <point x="784" y="1086"/>
      <point x="883" y="1086" type="curve" smooth="yes"/>
      <point x="940" y="1086"/>
      <point x="1004" y="1111"/>
      <point x="1083" y="1177" type="curve" smooth="yes"/>
      <point x="1104" y="1194"/>
      <point x="1106" y="1222"/>
      <point x="1089" y="1251" type="curve" smooth="yes"/>
      <point x="1072" y="1280"/>
      <point x="1049" y="1289"/>
      <point x="1027" y="1276" type="curve" smooth="yes"/>
      <point x="980" y="1248"/>
      <point x="932" y="1234"/>
      <point x="892" y="1234" type="curve" smooth="yes"/>
      <point x="802" y="1234"/>
      <point x="722" y="1297"/>
      <point x="623" y="1297" type="curve" smooth="yes"/>
    </contour>
  </outline>
</glyph>
<glyph name="Delta" format="1">
  <advance width="1228"/>
  <unicode hex="0394"/>
  <outline>
    <contour>
      <point x="707" y="1209"/>
      <point x="670" y="1191"/>
      <point x="645" y="1144" type="curve" smooth="yes"/>
      <point x="101" y="106" type="line" smooth="yes"/>
      <point x="94" y="93"/>
      <point x="90" y="79"/>
      <point x="90" y="66" type="curve" smooth="yes"/>
      <point x="90" y="15"/>
      <point x="97" y="0"/>
      <point x="140" y="0" type="curve" smooth="yes"/>
      <point x="947" y="0" type="line" smooth="yes"/>
      <point x="992" y="0"/>
      <point x="1011" y="17"/>
      <point x="1021" y="67" type="curve" smooth="yes"/>
      <point x="1024" y="82"/>
      <point x="1025" y="93"/>
      <point x="1023" y="106" type="curve" smooth="yes"/>
      <point x="849" y="1144" type="line" smooth="yes"/>
      <point x="841" y="1190"/>
      <point x="813" y="1209"/>
      <point x="760" y="1209" type="curve" smooth="yes"/>
    </contour>
    <contour>
      <point x="865" y="136" type="line"/>
      <point x="279" y="136" type="line"/>
      <point x="730" y="1022" type="line"/>
      <point x="732" y="1022" type="line"/>
    </contour>
  </outline>
</glyph>
<glyph name="Omega" format="1">
  <advance width="1228"/>
  <unicode hex="03A9"/>
  <outline>
    <contour>
      <point x="534" y="1209"/>
      <point x="375" y="1108"/>
      <point x="269" y="961" type="curve" smooth="yes"/>
      <point x="175" y="830"/>
      <point x="133" y="674"/>
      <point x="133" y="519" type="curve" smooth="yes"/>
      <point x="133" y="361"/>
      <point x="202" y="234"/>
      <point x="300" y="144" type="curve"/>
      <point x="103" y="144" type="line" smooth="yes"/>
      <point x="58" y="144"/>
      <point x="37" y="124"/>
      <point x="28" y="72" type="curve" smooth="yes"/>
      <point x="19" y="20"/>
      <point x="33" y="0"/>
      <point x="78" y="0" type="curve" smooth="yes"/>
      <point x="401" y="0" type="line" smooth="yes"/>
      <point x="446" y="0"/>
      <point x="468" y="21"/>
      <point x="478" y="78" type="curve" smooth="yes"/>
      <point x="483" y="109"/>
      <point x="483" y="134"/>
      <point x="472" y="143" type="curve" smooth="yes"/>
      <point x="355" y="235"/>
      <point x="283" y="354"/>
      <point x="283" y="514" type="curve" smooth="yes"/>
      <point x="283" y="639"/>
      <point x="320" y="773"/>
      <point x="395" y="878" type="curve" smooth="yes"/>
      <point x="472" y="986"/>
      <point x="586" y="1061"/>
      <point x="731" y="1061" type="curve" smooth="yes"/>
      <point x="918" y="1061"/>
      <point x="1030" y="933"/>
      <point x="1030" y="722" type="curve" smooth="yes"/>
      <point x="1030" y="522"/>
      <point x="938" y="302"/>
      <point x="652" y="142" type="curve" smooth="yes"/>
      <point x="637" y="133"/>
      <point x="629" y="109"/>
      <point x="624" y="78" type="curve" smooth="yes"/>
      <point x="614" y="21"/>
      <point x="635" y="0"/>
      <point x="673" y="0" type="curve" smooth="yes"/>
      <point x="1018" y="0" type="line" smooth="yes"/>
      <point x="1063" y="0"/>
      <point x="1084" y="20"/>
      <point x="1093" y="72" type="curve" smooth="yes"/>
      <point x="1102" y="124"/>
      <point x="1088" y="144"/>
      <point x="1043" y="144" type="curve" smooth="yes"/>
      <point x="855" y="144" type="line"/>
      <point x="1084" y="294"/>
      <point x="1183" y="519"/>
      <point x="1183" y="728" type="curve" smooth="yes"/>
      <point x="1183" y="1018"/>
      <point x="1014" y="1209"/>
      <point x="742" y="1209" type="curve" smooth="yes"/>
    </contour>
  </outline>
</glyph>
<glyph name="emdash" format="1">
  <advance width="1228"/>
  <unicode hex="2014"/>
  <outline>
    <contour>
      <point x="77" y="650" type="line" smooth="yes"/>
      <point x="32" y="650"/>
      <point x="11" y="632"/>
      <point x="2" y="582" type="curve" smooth="yes"/>
      <point x="-7" y="532"/>
      <point x="8" y="514"/>
      <point x="53" y="514" type="curve" smooth="yes"/>
      <point x="1215" y="514" type="line" smooth="yes"/>
      <point x="1260" y="514"/>
      <point x="1281" y="532"/>
      <point x="1290" y="582" type="curve" smooth="yes"/>
      <point x="1299" y="632"/>
      <point x="1284" y="650"/>
      <point x="1239" y="650" type="curve" smooth="yes"/>
    </contour>
  </outline>
</glyph>
<glyph name="quoteright" format="1">
  <advance width="1228"/>
  <unicode hex="2019"/>
  <outline>
    <contour>
      <point x="729" y="1269" type="line" smooth="yes"/>
      <point x="702" y="1269"/>
      <point x="681" y="1256"/>
      <point x="673" y="1231" type="curve" smooth="yes"/>
      <point x="510" y="777" type="line" smooth="yes"/>
      <point x="496" y="737"/>
      <point x="512" y="714"/>
      <point x="564" y="714" type="curve" smooth="yes"/>
      <point x="610" y="714"/>
      <point x="640" y="727"/>
      <point x="656" y="753" type="curve" smooth="yes"/>
      <point x="931" y="1210" type="line" smooth="yes"/>
      <point x="951" y="1243"/>
      <point x="941" y="1269"/>
      <point x="910" y="1269" type="curve" smooth="yes"/>
    </contour>
  </outline>
</glyph>
<glyph name="daggerdbl" format="1">
  <advance width="1228"/>
  <unicode hex="2021"/>
  <outline>
    <contour>
      <point x="707" y="1209"/>
      <point x="686" y="1191"/>
      <point x="678" y="1146" type="curve" smooth="yes"/>
      <point x="647" y="974" type="line"/>
      <point x="454" y="974" type="line" smooth="yes"/>
      <point x="409" y="974"/>
      <point x="388" y="956"/>
      <point x="379" y="906" type="curve" smooth="yes"/>
      <point x="370" y="856"/>
      <point x="385" y="838"/>
      <point x="430" y="838" type="curve" smooth="yes"/>
      <point x="623" y="838" type="line"/>
      <point x="580" y="592" type="line"/>
      <point x="387" y="592" type="line" smooth="yes"/>
      <point x="342" y="592"/>
      <point x="321" y="574"/>
      <point x="312" y="524" type="curve" smooth="yes"/>
      <point x="303" y="474"/>
      <point x="318" y="456"/>
      <point x="363" y="456" type="curve" smooth="yes"/>
      <point x="556" y="456" type="line"/>
      <point x="526" y="284" type="line" smooth="yes"/>
      <point x="518" y="239"/>
      <point x="532" y="221"/>
      <point x="582" y="221" type="curve" smooth="yes"/>
      <point x="632" y="221"/>
      <point x="654" y="239"/>
      <point x="662" y="284" type="curve" smooth="yes"/>
      <point x="692" y="456" type="line"/>
      <point x="885" y="456" type="line" smooth="yes"/>
      <point x="930" y="456"/>
      <point x="951" y="474"/>
      <point x="960" y="524" type="curve" smooth="yes"/>
      <point x="969" y="574"/>
      <point x="954" y="592"/>
      <point x="909" y="592" type="curve" smooth="yes"/>
      <point x="716" y="592" type="line"/>
      <point x="759" y="838" type="line"/>
      <point x="952" y="838" type="line" smooth="yes"/>
      <point x="997" y="838"/>
      <point x="1018" y="856"/>
      <point x="1027" y="906" type="curve" smooth="yes"/>
      <point x="1036" y="956"/>
      <point x="1021" y="974"/>
      <point x="976" y="974" type="curve" smooth="yes"/>
      <point x="783" y="974" type="line"/>
      <point x="814" y="1146" type="line" smooth="yes"/>
      <point x="822" y="1191"/>
      <point x="807" y="1209"/>
      <point x="757" y="1209" type="curve" smooth="yes"/>
    </contour>
  </outline>
</glyph>
<glyph name="bullet" format="1">
  <advance width="1228"/>
  <unicode hex="2022"/>
  <outline>
    <contour>
      <point x="521" y="853"/>
      <point x="457" y="825"/>
      <point x="445" y="755" type="curve" smooth="yes"/>
      <point x="392" y="453" type="line" smooth="yes"/>
      <point x="380" y="383"/>
      <point x="454" y="355"/>
      <point x="617" y="355" type="curve" smooth="yes"/>
      <point x="780" y="355"/>
      <point x="844" y="383"/>
      <point x="856" y="453" type="curve" smooth="yes"/>
      <point x="909" y="755" type="line" smooth="yes"/>
      <point x="921" y="825"/>
      <point x="847" y="853"/>
      <point x="684" y="853" type="curve" smooth="yes"/>
    </contour>
  </outline>
</glyph>
<glyph name="ellipsis" format="1">
  <advance width="1228"/>
  <unicode hex="2026"/>
  <outline>
    <contour>
      <point x="505" y="230"/>
      <point x="477" y="215"/>
      <point x="470" y="177" type="curve" smooth="yes"/>
      <point x="447" y="43" type="line" smooth="yes"/>
      <point x="440" y="5"/>
      <point x="474" y="-10"/>
      <point x="548" y="-10" type="curve" smooth="yes"/>
      <point x="622" y="-10"/>
      <point x="650" y="5"/>
      <point x="657" y="43" type="curve" smooth="yes"/>
      <point x="680" y="177" type="line" smooth="yes"/>
      <point x="687" y="215"/>
      <point x="653" y="230"/>
      <point x="579" y="230" type="curve" smooth="yes"/>
    </contour>
    <contour>
      <point x="105" y="230"/>
      <point x="77" y="215"/>
      <point x="70" y="177" type="curve" smooth="yes"/>
      <point x="47" y="43" type="line" smooth="yes"/>
      <point x="40" y="5"/>
      <point x="74" y="-10"/>
      <point x="148" y="-10" type="curve" smooth="yes"/>
      <point x="222" y="-10"/>
      <point x="250" y="5"/>
      <point x="257" y="43" type="curve" smooth="yes"/>
      <point x="280" y="177" type="line" smooth="yes"/>
      <point x="287" y="215"/>
      <point x="253" y="230"/>
      <point x="179" y="230" type="curve" smooth="yes"/>
    </contour>
    <contour>
      <point x="905" y="230"/>
      <point x="877" y="215"/>
      <point x="870" y="177" type="curve" smooth="yes"/>
      <point x="847" y="43" type="line" smooth="yes"/>
      <point x="840" y="5"/>
      <point x="874" y="-10"/>
      <point x="948" y="-10" type="curve" smooth="yes"/>
      <point x="1022" y="-10"/>
      <point x="1050" y="5"/>
      <point x="1057" y="43" type="curve" smooth="yes"/>
      <point x="1080" y="177" type="line" smooth="yes"/>
      <point x="1087" y="215"/>
      <point x="1053" y="230"/>
      <point x="979" y="230" type="curve" smooth="yes"/>
    </contour>
  </outline>
</glyph>
<glyph name="fraction" format="1">
  <advance width="1228"/>
  <unicode hex="2044"/>
  <outline>
    <contour>
      <point x="104" y="289" type="line" smooth="yes"/>
      <point x="83" y="277"/>
      <point x="78" y="250"/>
      <point x="93" y="224" type="curve" smooth="yes"/>
      <point x="107" y="198"/>
      <point x="130" y="190"/>
      <point x="149" y="200" type="curve" smooth="yes"/>
      <point x="1166" y="761" type="line" smooth="yes"/>
      <point x="1187" y="773"/>
      <point x="1191" y="800"/>
      <point x="1177" y="826" type="curve" smooth="yes"/>
      <point x="1163" y="852"/>
      <point x="1140" y="860"/>
      <point x="1121" y="850" type="curve" smooth="yes"/>
    </contour>
  </outline>
</glyph>
<glyph name="won" format="1">
  <advance width="1228"/>
  <unicode hex="20A9"/>
  <outline>
    <contour>
      <point x="97" y="750" type="line" smooth="yes"/>
      <point x="52" y="750"/>
      <point x="31" y="732"/>
      <point x="22" y="682" type="curve" smooth="yes"/>
      <point x="13" y="632"/>
      <point x="28" y="614"/>
      <point x="73" y="614" type="curve" smooth="yes"/>
      <point x="595" y="614" type="line"/>
      <point x="660" y="674" type="line"/>
      <point x="710" y="614" type="line"/>
      <point x="1235" y="614" type="line" smooth="yes"/>
      <point x="1280" y="614"/>
      <point x="1301" y="632"/>
      <point x="1310" y="682" type="curve" smooth="yes"/>
      <point x="1319" y="732"/>
      <point x="1304" y="750"/>
      <point x="1259" y="750" type="curve" smooth="yes"/>
    </contour>
    <component base="W"/>
  </outline>
</glyph>
<glyph name="trademark" format="1">
  <advance width="1228"/>
  <unicode hex="2122"/>
  <outline>
    <contour>
      <point x="1299" y="1322"/>
      <point x="1275" y="1315"/>
      <point x="1263" y="1296" type="curve" smooth="yes"/>
      <point x="1068" y="997" type="line"/>
      <point x="979" y="1296" type="line" smooth="yes"/>
      <point x="973" y="1315"/>
      <point x="955" y="1322"/>
      <point x="923" y="1322" type="curve" smooth="yes"/>
      <point x="877" y="1322"/>
      <point x="857" y="1303"/>
      <point x="846" y="1257" type="curve" smooth="yes"/>
      <point x="738" y="813" type="line" smooth="yes"/>
      <point x="727" y="767"/>
      <point x="737" y="748"/>
      <point x="783" y="748" type="curve" smooth="yes"/>
      <point x="829" y="748"/>
      <point x="847" y="767"/>
      <point x="858" y="813" type="curve" smooth="yes"/>
      <point x="921" y="1072" type="line"/>
      <point x="981" y="880" type="line" smooth="yes"/>
      <point x="990" y="848"/>
      <point x="1016" y="832"/>
      <point x="1046" y="832" type="curve" smooth="yes"/>
      <point x="1076" y="832"/>
      <point x="1103" y="848"/>
      <point x="1125" y="880" type="curve" smooth="yes"/>
      <point x="1252" y="1072" type="line"/>
      <point x="1224" y="813" type="line" smooth="yes"/>
      <point x="1219" y="767"/>
      <point x="1229" y="748"/>
      <point x="1275" y="748" type="curve" smooth="yes"/>
      <point x="1321" y="748"/>
      <point x="1339" y="767"/>
      <point x="1344" y="813" type="curve" smooth="yes"/>
      <point x="1392" y="1257" type="line" smooth="yes"/>
      <point x="1397" y="1303"/>
      <point x="1377" y="1322"/>
      <point x="1331" y="1322" type="curve" smooth="yes"/>
    </contour>
    <contour>
      <point x="284" y="1312" type="line" smooth="yes"/>
      <point x="239" y="1312"/>
      <point x="218" y="1297"/>
      <point x="210" y="1252" type="curve" smooth="yes"/>
      <point x="202" y="1207"/>
      <point x="218" y="1193"/>
      <point x="263" y="1193" type="curve" smooth="yes"/>
      <point x="392" y="1193" type="line"/>
      <point x="325" y="813" type="line" smooth="yes"/>
      <point x="317" y="767"/>
      <point x="329" y="748"/>
      <point x="375" y="748" type="curve" smooth="yes"/>
      <point x="421" y="748"/>
      <point x="441" y="767"/>
      <point x="449" y="813" type="curve" smooth="yes"/>
      <point x="516" y="1193" type="line"/>
      <point x="645" y="1193" type="line" smooth="yes"/>
      <point x="690" y="1193"/>
      <point x="710" y="1207"/>
      <point x="718" y="1252" type="curve" smooth="yes"/>
      <point x="726" y="1297"/>
      <point x="711" y="1312"/>
      <point x="666" y="1312" type="curve" smooth="yes"/>
    </contour>
  </outline>
</glyph>
<glyph name="product" format="1">
  <advance width="1228"/>
  <unicode hex="220F"/>
  <outline>
    <contour>
      <point x="397" y="1187" type="line" smooth="yes"/>
      <point x="352" y="1187"/>
      <point x="331" y="1169"/>
      <point x="322" y="1119" type="curve" smooth="yes"/>
      <point x="134" y="55" type="line" smooth="yes"/>
      <point x="126" y="9"/>
      <point x="141" y="-10"/>
      <point x="197" y="-10" type="curve" smooth="yes"/>
      <point x="199" y="-10" type="line" smooth="yes"/>
      <point x="252" y="-10"/>
      <point x="276" y="9"/>
      <point x="284" y="55" type="curve" smooth="yes"/>
      <point x="459" y="1043" type="line"/>
      <point x="997" y="1043" type="line"/>
      <point x="822" y="55" type="line" smooth="yes"/>
      <point x="814" y="9"/>
      <point x="829" y="-10"/>
      <point x="885" y="-10" type="curve" smooth="yes"/>
      <point x="887" y="-10" type="line" smooth="yes"/>
      <point x="940" y="-10"/>
      <point x="964" y="9"/>
      <point x="972" y="55" type="curve" smooth="yes"/>
      <point x="1160" y="1119" type="line" smooth="yes"/>
      <point x="1169" y="1169"/>
      <point x="1154" y="1187"/>
      <point x="1109" y="1187" type="curve" smooth="yes"/>
    </contour>
  </outline>
</glyph>
<glyph name="summation" format="1">
  <advance width="1228"/>
  <unicode hex="2211"/>
  <outline>
    <contour>
      <point x="389" y="1187" type="line" smooth="yes"/>
      <point x="344" y="1187"/>
      <point x="321" y="1169"/>
      <point x="312" y="1119" type="curve" smooth="yes"/>
      <point x="309" y="1099"/>
      <point x="308" y="1082"/>
      <point x="316" y="1070" type="curve" smooth="yes"/>
      <point x="607" y="607" type="line"/>
      <point x="132" y="121" type="line" smooth="yes"/>
      <point x="120" y="108"/>
      <point x="111" y="90"/>
      <point x="107" y="68" type="curve" smooth="yes"/>
      <point x="98" y="18"/>
      <point x="115" y="0"/>
      <point x="160" y="0" type="curve" smooth="yes"/>
      <point x="907" y="0" type="line" smooth="yes"/>
      <point x="952" y="0"/>
      <point x="974" y="20"/>
      <point x="983" y="72" type="curve" smooth="yes"/>
      <point x="992" y="124"/>
      <point x="977" y="144"/>
      <point x="932" y="144" type="curve" smooth="yes"/>
      <point x="349" y="144" type="line"/>
      <point x="763" y="565" type="line" smooth="yes"/>
      <point x="780" y="583"/>
      <point x="780" y="607"/>
      <point x="768" y="626" type="curve" smooth="yes"/>
      <point x="504" y="1043" type="line"/>
      <point x="1071" y="1043" type="line" smooth="yes"/>
      <point x="1116" y="1043"/>
      <point x="1137" y="1063"/>
      <point x="1147" y="1115" type="curve" smooth="yes"/>
      <point x="1156" y="1167"/>
      <point x="1141" y="1187"/>
      <point x="1096" y="1187" type="curve" smooth="yes"/>
    </contour>
    <contour>
      <point x="395" y="-837" type="line"/>
      <point x="395" y="-838" type="line"/>
      <point x="396" y="-838" type="line"/>
      <point x="396" y="-837" type="line"/>
    </contour>
    <contour>
      <point x="860" y="1797" type="line"/>
      <point x="860" y="1796" type="line"/>
      <point x="861" y="1796" type="line"/>
      <point x="861" y="1797" type="line"/>
    </contour>
  </outline>
</glyph>
<glyph name="minus" format="1">
  <advance width="1228"/>
  <unicode hex="2212"/>
  <outline>
    <contour>
      <point x="277" y="650" type="line" smooth="yes"/>
      <point x="232" y="650"/>
      <point x="211" y="632"/>
      <point x="202" y="582" type="curve" smooth="yes"/>
      <point x="193" y="532"/>
      <point x="208" y="514"/>
      <point x="253" y="514" type="curve" smooth="yes"/>
      <point x="1015" y="514" type="line" smooth="yes"/>
      <point x="1060" y="514"/>
      <point x="1081" y="532"/>
      <point x="1090" y="582" type="curve" smooth="yes"/>
      <point x="1099" y="632"/>
      <point x="1084" y="650"/>
      <point x="1039" y="650" type="curve" smooth="yes"/>
    </contour>
  </outline>
</glyph>
<glyph name="integral" format="1">
  <advance width="1228"/>
  <unicode hex="222B"/>
  <outline>
    <contour>
      <point x="865" y="1517"/>
      <point x="710" y="1368"/>
      <point x="666" y="1119" type="curve" smooth="yes"/>
      <point x="470" y="10" type="line" smooth="yes"/>
      <point x="439" y="-165"/>
      <point x="343" y="-264"/>
      <point x="203" y="-264" type="curve" smooth="yes"/>
      <point x="124" y="-264"/>
      <point x="47" y="-246"/>
      <point x="-29" y="-216" type="curve" smooth="yes"/>
      <point x="-61" y="-203"/>
      <point x="-85" y="-216"/>
      <point x="-105" y="-263" type="curve" smooth="yes"/>
      <point x="-125" y="-310"/>
      <point x="-113" y="-337"/>
      <point x="-80" y="-352" type="curve" smooth="yes"/>
      <point x="-5" y="-387"/>
      <point x="89" y="-410"/>
      <point x="189" y="-410" type="curve" smooth="yes"/>
      <point x="417" y="-410"/>
      <point x="572" y="-261"/>
      <point x="616" y="-12" type="curve" smooth="yes"/>
      <point x="812" y="1097" type="line" smooth="yes"/>
      <point x="843" y="1272"/>
      <point x="939" y="1371"/>
      <point x="1079" y="1371" type="curve" smooth="yes"/>
      <point x="1158" y="1371"/>
      <point x="1235" y="1353"/>
      <point x="1311" y="1323" type="curve" smooth="yes"/>
      <point x="1343" y="1310"/>
      <point x="1367" y="1323"/>
      <point x="1387" y="1370" type="curve" smooth="yes"/>
      <point x="1407" y="1417"/>
      <point x="1395" y="1444"/>
      <point x="1362" y="1459" type="curve" smooth="yes"/>
      <point x="1287" y="1494"/>
      <point x="1193" y="1517"/>
      <point x="1093" y="1517" type="curve" smooth="yes"/>
    </contour>
  </outline>
</glyph>
<glyph name="notequal" format="1">
  <advance width="1228"/>
  <unicode hex="2260"/>
  <outline>
    <contour>
      <point x="915" y="1106"/>
      <point x="885" y="1100"/>
      <point x="858" y="1058" type="curve" smooth="yes"/>
      <point x="729" y="854" type="line"/>
      <point x="649" y="710" type="line"/>
      <point x="488" y="454" type="line"/>
      <point x="408" y="310" type="line"/>
      <point x="315" y="165" type="line" smooth="yes"/>
      <point x="288" y="123"/>
      <point x="298" y="95"/>
      <point x="338" y="75" type="curve" smooth="yes"/>
      <point x="376" y="56"/>
      <point x="406" y="62"/>
      <point x="433" y="104" type="curve" smooth="yes"/>
      <point x="564" y="310" type="line"/>
      <point x="644" y="454" type="line"/>
      <point x="805" y="710" type="line"/>
      <point x="885" y="854" type="line"/>
      <point x="976" y="997" type="line" smooth="yes"/>
      <point x="1003" y="1039"/>
      <point x="993" y="1067"/>
      <point x="953" y="1087" type="curve" smooth="yes"/>
    </contour>
    <component base="equal"/>
  </outline>
</glyph>
<glyph name="lozenge" format="1">
  <advance width="1228"/>
  <unicode hex="25CA"/>
  <outline>
    <contour>
      <point x="692" y="1209"/>
      <point x="664" y="1188"/>
      <point x="632" y="1144" type="curve" smooth="yes"/>
      <point x="255" y="637" type="line" smooth="yes"/>
      <point x="240" y="617"/>
      <point x="237" y="597"/>
      <point x="244" y="577" type="curve" smooth="yes"/>
      <point x="454" y="43" type="line" smooth="yes"/>
      <point x="471" y="-1"/>
      <point x="491" y="-22"/>
      <point x="548" y="-22" type="curve" smooth="yes"/>
      <point x="605" y="-22"/>
      <point x="633" y="-1"/>
      <point x="666" y="43" type="curve" smooth="yes"/>
      <point x="1041" y="549" type="line" smooth="yes"/>
      <point x="1056" y="569"/>
      <point x="1059" y="589"/>
      <point x="1052" y="609" type="curve" smooth="yes"/>
      <point x="844" y="1144" type="line" smooth="yes"/>
      <point x="827" y="1188"/>
      <point x="806" y="1209"/>
      <point x="749" y="1209" type="curve" smooth="yes"/>
    </contour>
    <contour>
      <point x="895" y="593" type="line"/>
      <point x="572" y="158" type="line"/>
      <point x="403" y="593" type="line"/>
      <point x="725" y="1029" type="line"/>
    </contour>
  </outline>
</glyph>
<glyph name="caron.alt" format="1">
  <advance width="1228"/>
  <outline>
    <contour>
      <point x="533" y="1312" type="line" smooth="yes"/>
      <point x="510" y="1312"/>
      <point x="493" y="1301"/>
      <point x="485" y="1280" type="curve" smooth="yes"/>
      <point x="344" y="918" type="line" smooth="yes"/>
      <point x="331" y="883"/>
      <point x="348" y="862"/>
      <point x="386" y="862" type="curve" smooth="yes"/>
      <point x="415" y="862"/>
      <point x="438" y="874"/>
      <point x="454" y="897" type="curve" smooth="yes"/>
      <point x="700" y="1261" type="line" smooth="yes"/>
      <point x="720" y="1290"/>
      <point x="713" y="1312"/>
      <point x="686" y="1312" type="curve" smooth="yes"/>
    </contour>
  </outline>
</glyph>
<glyph name="emdash.alt1" format="1">
  <advance width="1228"/>
  <outline>
    <contour>
      <point x="-322" y="650" type="line" smooth="yes"/>
      <point x="-367" y="650"/>
      <point x="-388" y="632"/>
      <point x="-397" y="582" type="curve" smooth="yes"/>
      <point x="-406" y="532"/>
      <point x="-391" y="514"/>
      <point x="-346" y="514" type="curve" smooth="yes"/>
      <point x="1615" y="514" type="line" smooth="yes"/>
      <point x="1660" y="514"/>
      <point x="1681" y="532"/>
      <point x="1690" y="582" type="curve" smooth="yes"/>
      <point x="1699" y="632"/>
      <point x="1684" y="650"/>
      <point x="1639" y="650" type="curve" smooth="yes"/>
    </contour>
  </outline>
</glyph>
<glyph name="emdash.alt3" format="1">
  <advance width="1228"/>
  <outline>
    <contour>
      <point x="391" y="650" type="line" smooth="yes"/>
      <point x="346" y="650"/>
      <point x="325" y="632"/>
      <point x="316" y="582" type="curve" smooth="yes"/>
      <point x="307" y="532"/>
      <point x="322" y="514"/>
      <point x="367" y="514" type="curve" smooth="yes"/>
      <point x="2129" y="514" type="line" smooth="yes"/>
      <point x="2174" y="514"/>
      <point x="2195" y="532"/>
      <point x="2204" y="582" type="curve" smooth="yes"/>
      <point x="2213" y="632"/>
      <point x="2198" y="650"/>
      <point x="2153" y="650" type="curve" smooth="yes"/>
    </contour>
  </outline>
</glyph>
<glyph name="emdash.alt4" format="1">
  <advance width="1228"/>
  <outline>
    <contour>
      <point x="-122" y="650" type="line" smooth="yes"/>
      <point x="-167" y="650"/>
      <point x="-188" y="632"/>
      <point x="-197" y="582" type="curve" smooth="yes"/>
      <point x="-206" y="532"/>
      <point x="-191" y="514"/>
      <point x="-146" y="514" type="curve" smooth="yes"/>
      <point x="1415" y="514" type="line" smooth="yes"/>
      <point x="1460" y="514"/>
      <point x="1481" y="532"/>
      <point x="1490" y="582" type="curve" smooth="yes"/>
      <point x="1499" y="632"/>
      <point x="1484" y="650"/>
      <point x="1439" y="650" type="curve" smooth="yes"/>
    </contour>
  </outline>
</glyph>
<glyph name="period.squat" format="1">
  <advance width="1228"/>
  <outline>
    <contour>
      <point x="494" y="300"/>
      <point x="459" y="282"/>
      <point x="451" y="237" type="curve" smooth="yes"/>
      <point x="418" y="53" type="line" smooth="yes"/>
      <point x="410" y="8"/>
      <point x="455" y="-10"/>
      <point x="550" y="-10" type="curve" smooth="yes"/>
      <point x="645" y="-10"/>
      <point x="680" y="8"/>
      <point x="688" y="53" type="curve" smooth="yes"/>
      <point x="721" y="237" type="line" smooth="yes"/>
      <point x="729" y="282"/>
      <point x="684" y="300"/>
      <point x="589" y="300" type="curve" smooth="yes"/>
    </contour>
  </outline>
</glyph>
